<?xml version="1.0" encoding="UTF-8" standalone="no"?>
<svg width="347px" height="202px" viewBox="0 0 347 202" version="1.1" xmlns="http://www.w3.org/2000/svg" xmlns:xlink="http://www.w3.org/1999/xlink" xmlns:sketch="http://www.bohemiancoding.com/sketch/ns">
    <!-- Generator: Sketch 3.2.2 (9983) - http://www.bohemiancoding.com/sketch -->
    <title>burger</title>
    <desc>Created with Sketch.</desc>
    <defs></defs>
    <g id="Page-2" stroke="none" stroke-width="1" fill="none" fill-rule="evenodd" sketch:type="MSPage">
        <g id="Desktop-HD" sketch:type="MSArtboardGroup" transform="translate(-548.000000, -214.000000)">
            <g id="burger" sketch:type="MSLayerGroup" transform="translate(548.000000, 215.000000)">
                <rect id="Rectangle-10" fill="#BB9571" sketch:type="MSShapeGroup" x="0" y="98" width="347" height="28" rx="13"></rect>
                <rect id="Rectangle-11" fill="#A48465" sketch:type="MSShapeGroup" x="0" y="126" width="347" height="28" rx="13"></rect>
                <path d="M296.967205,14.5574111 C224.908691,-9.61003492 64.5566058,1.00805592 35.446184,14.5574107 C8.97476574,26.8784495 9.40976264,84.5328093 9.40976264,84.5328093 L329.279407,84.5328093 C329.279407,84.5328093 333.273672,26.7341064 296.967205,14.5574111 Z" id="Path-2" stroke="#979797" fill="#EEB978" sketch:type="MSShapeGroup"></path>
                <path d="M299.068587,162.066947 C227.235255,148.781968 67.3842706,154.618792 38.3648188,162.066947 C11.9761237,168.83989 12.4097613,200.532811 12.4097613,200.532811 L331.279813,200.532811 C331.279813,200.532811 335.261596,168.760544 299.068587,162.066947 Z" id="Path-3" fill="#E5BC89" sketch:type="MSShapeGroup" transform="translate(171.909322, 177.338200) scale(1, -1) translate(-171.909322, -177.338200) "></path>
                <rect id="Rectangle-8" fill="#8E7054" sketch:type="MSShapeGroup" x="14" y="144" width="317" height="6" rx="5"></rect>
                <rect id="Rectangle-9" fill="#E75656" sketch:type="MSShapeGroup" x="14" y="84" width="317" height="14" rx="3"></rect>
                <path d="M131.726194,126.425425 L284.092642,159.087766 L325.445402,125.747373 L131.726194,126.425425 Z" id="Path-5" fill="#F9DB81" sketch:type="MSShapeGroup"></path>
                <path d="M21.7261938,126.588124 L149.710135,167.087766 L184.445402,125.747373 L21.7261938,126.588124 Z" id="Path-4" fill="#FFE081" sketch:type="MSShapeGroup"></path>
                <path d="M12.0328903,84.1940954 L39.590522,98.5426916 C45.814515,101.783375 55.9481886,101.88896 62.2487862,98.7665931 L87.7316874,86.1381144 L111.152091,94.2093578 C117.782921,96.4945038 127.263418,94.4106561 132.325674,89.556583 L138.705344,83.4392749 L161.989445,103.370094 C167.317192,107.930561 176.114341,108.113718 181.636041,103.781059 L205.890525,84.7495294 L233.398125,89.0501199 C240.32998,90.1338593 251.508974,89.8397477 258.373557,88.3918428 L279.963308,83.838048 L297.560218,91.6738111 C303.968831,94.5275155 314.003702,93.8596228 319.985581,90.1747295 L332.589989,82.4102978 L12.0328903,84.1940954 Z" id="Path-6" fill="#1EAD71" sketch:type="MSShapeGroup"></path>
                <path d="M55.2147379,30.7568789 L54.1730593,23.1061621 C53.8480122,20.7188196 55.5433082,18.8618005 57.9486547,18.957956 L57.9486547,18.957956 C60.3589056,19.0543075 61.2958207,20.797918 60.0376403,22.8584342 L55.2147379,30.7568789 Z" id="Path-7" fill="#F8FBDC" sketch:type="MSShapeGroup" transform="translate(57.948655, 24.770187) rotate(188.000000) translate(-57.948655, -24.770187) "></path>
                <path d="M95.2147379,40.7568789 L94.1730593,33.1061621 C93.8480122,30.7188196 95.5433082,28.8618005 97.9486547,28.957956 L97.9486547,28.957956 C100.358906,29.0543075 101.295821,30.797918 100.03764,32.8584342 L95.2147379,40.7568789 Z" id="Path-8" fill="#F8FBDC" sketch:type="MSShapeGroup" transform="translate(97.948655, 34.770187) rotate(188.000000) translate(-97.948655, -34.770187) "></path>
                <path d="M125.214738,30.7568789 L124.173059,23.1061621 C123.848012,20.7188196 125.543308,18.8618005 127.948655,18.957956 L127.948655,18.957956 C130.358906,19.0543075 131.295821,20.797918 130.03764,22.8584342 L125.214738,30.7568789 Z" id="Path-9" fill="#F8FBDC" sketch:type="MSShapeGroup" transform="translate(127.948655, 24.770187) rotate(188.000000) translate(-127.948655, -24.770187) "></path>
                <path d="M155.214738,50.7568789 L154.173059,43.1061621 C153.848012,40.7188196 155.543308,38.8618005 157.948655,38.957956 L157.948655,38.957956 C160.358906,39.0543075 161.295821,40.797918 160.03764,42.8584342 L155.214738,50.7568789 Z" id="Path-10" fill="#F8FBDC" sketch:type="MSShapeGroup" transform="translate(157.948655, 44.770187) rotate(188.000000) translate(-157.948655, -44.770187) "></path>
                <path d="M175.214738,30.7568789 L174.173059,23.1061621 C173.848012,20.7188196 175.543308,18.8618005 177.948655,18.957956 L177.948655,18.957956 C180.358906,19.0543075 181.295821,20.797918 180.03764,22.8584342 L175.214738,30.7568789 Z" id="Path-11" fill="#F8FBDC" sketch:type="MSShapeGroup" transform="translate(177.948655, 24.770187) rotate(188.000000) translate(-177.948655, -24.770187) "></path>
                <path d="M215.214738,30.7568789 L214.173059,23.1061621 C213.848012,20.7188196 215.543308,18.8618005 217.948655,18.957956 L217.948655,18.957956 C220.358906,19.0543075 221.295821,20.797918 220.03764,22.8584342 L215.214738,30.7568789 Z" id="Path-12" fill="#F8FBDC" sketch:type="MSShapeGroup" transform="translate(217.948655, 24.770187) rotate(188.000000) translate(-217.948655, -24.770187) "></path>
                <path d="M195.214738,50.7568789 L194.173059,43.1061621 C193.848012,40.7188196 195.543308,38.8618005 197.948655,38.957956 L197.948655,38.957956 C200.358906,39.0543075 201.295821,40.797918 200.03764,42.8584342 L195.214738,50.7568789 Z" id="Path-13" fill="#F8FBDC" sketch:type="MSShapeGroup" transform="translate(197.948655, 44.770187) rotate(188.000000) translate(-197.948655, -44.770187) "></path>
                <path d="M235.214738,50.7568789 L234.173059,43.1061621 C233.848012,40.7188196 235.543308,38.8618005 237.948655,38.957956 L237.948655,38.957956 C240.358906,39.0543075 241.295821,40.797918 240.03764,42.8584342 L235.214738,50.7568789 Z" id="Path-14" fill="#F8FBDC" sketch:type="MSShapeGroup" transform="translate(237.948655, 44.770187) rotate(188.000000) translate(-237.948655, -44.770187) "></path>
                <path d="M245.214738,20.7568789 L244.173059,13.1061621 C243.848012,10.7188196 245.543308,8.86180053 247.948655,8.95795601 L247.948655,8.95795601 C250.358906,9.05430755 251.295821,10.797918 250.03764,12.8584342 L245.214738,20.7568789 Z" id="Path-15" fill="#F8FBDC" sketch:type="MSShapeGroup" transform="translate(247.948655, 14.770187) rotate(188.000000) translate(-247.948655, -14.770187) "></path>
                <path d="M215.214738,57.7568789 L214.173059,50.1061621 C213.848012,47.7188196 215.543308,45.8618005 217.948655,45.957956 L217.948655,45.957956 C220.358906,46.0543075 221.295821,47.797918 220.03764,49.8584342 L215.214738,57.7568789 Z" id="Path-16" fill="#F8FBDC" sketch:type="MSShapeGroup" transform="translate(217.948655, 51.770187) rotate(188.000000) translate(-217.948655, -51.770187) "></path>
                <path d="M125.214738,57.7568789 L124.173059,50.1061621 C123.848012,47.7188196 125.543308,45.8618005 127.948655,45.957956 L127.948655,45.957956 C130.358906,46.0543075 131.295821,47.797918 130.03764,49.8584342 L125.214738,57.7568789 Z" id="Path-17" fill="#F8FBDC" sketch:type="MSShapeGroup" transform="translate(127.948655, 51.770187) rotate(188.000000) translate(-127.948655, -51.770187) "></path>
                <path d="M145.214738,37.7568789 L144.173059,30.1061621 C143.848012,27.7188196 145.543308,25.8618005 147.948655,25.957956 L147.948655,25.957956 C150.358906,26.0543075 151.295821,27.797918 150.03764,29.8584342 L145.214738,37.7568789 Z" id="Path-18" fill="#F8FBDC" sketch:type="MSShapeGroup" transform="translate(147.948655, 31.770187) rotate(188.000000) translate(-147.948655, -31.770187) "></path>
                <path d="M112.214738,19.7568789 L111.173059,12.1061621 C110.848012,9.71881958 112.543308,7.86180053 114.948655,7.95795601 L114.948655,7.95795601 C117.358906,8.05430755 118.295821,9.79791803 117.03764,11.8584342 L112.214738,19.7568789 Z" id="Path-19" fill="#F8FBDC" sketch:type="MSShapeGroup" transform="translate(114.948655, 13.770187) rotate(188.000000) translate(-114.948655, -13.770187) "></path>
                <path d="M153.214738,19.7568789 L152.173059,12.1061621 C151.848012,9.71881958 153.543308,7.86180053 155.948655,7.95795601 L155.948655,7.95795601 C158.358906,8.05430755 159.295821,9.79791803 158.03764,11.8584342 L153.214738,19.7568789 Z" id="Path-20" fill="#F8FBDC" sketch:type="MSShapeGroup" transform="translate(155.948655, 13.770187) rotate(188.000000) translate(-155.948655, -13.770187) "></path>
                <path d="M193.214738,19.7568789 L192.173059,12.1061621 C191.848012,9.71881958 193.543308,7.86180053 195.948655,7.95795601 L195.948655,7.95795601 C198.358906,8.05430755 199.295821,9.79791803 198.03764,11.8584342 L193.214738,19.7568789 Z" id="Path-21" fill="#F8FBDC" sketch:type="MSShapeGroup" transform="translate(195.948655, 13.770187) rotate(188.000000) translate(-195.948655, -13.770187) "></path>
                <path d="M173.214738,59.7568789 L172.173059,52.1061621 C171.848012,49.7188196 173.543308,47.8618005 175.948655,47.957956 L175.948655,47.957956 C178.358906,48.0543075 179.295821,49.797918 178.03764,51.8584342 L173.214738,59.7568789 Z" id="Path-22" fill="#F8FBDC" sketch:type="MSShapeGroup" transform="translate(175.948655, 53.770187) rotate(188.000000) translate(-175.948655, -53.770187) "></path>
                <path d="M107.214738,53.7568789 L106.173059,46.1061621 C105.848012,43.7188196 107.543308,41.8618005 109.948655,41.957956 L109.948655,41.957956 C112.358906,42.0543075 113.295821,43.797918 112.03764,45.8584342 L107.214738,53.7568789 Z" id="Path-23" fill="#F8FBDC" sketch:type="MSShapeGroup" transform="translate(109.948655, 47.770187) rotate(188.000000) translate(-109.948655, -47.770187) "></path>
                <path d="M77.2147379,23.7568789 L76.1730593,16.1061621 C75.8480122,13.7188196 77.5433082,11.8618005 79.9486547,11.957956 L79.9486547,11.957956 C82.3589056,12.0543075 83.2958207,13.797918 82.0376403,15.8584342 L77.2147379,23.7568789 Z" id="Path-24" fill="#F8FBDC" sketch:type="MSShapeGroup" transform="translate(79.948655, 17.770187) rotate(188.000000) translate(-79.948655, -17.770187) "></path>
                <path d="M77.2147379,53.7568789 L76.1730593,46.1061621 C75.8480122,43.7188196 77.5433082,41.8618005 79.9486547,41.957956 L79.9486547,41.957956 C82.3589056,42.0543075 83.2958207,43.797918 82.0376403,45.8584342 L77.2147379,53.7568789 Z" id="Path-25" fill="#F8FBDC" sketch:type="MSShapeGroup" transform="translate(79.948655, 47.770187) rotate(188.000000) translate(-79.948655, -47.770187) "></path>
                <path d="M57.2147379,53.7568789 L56.1730593,46.1061621 C55.8480122,43.7188196 57.5433082,41.8618005 59.9486547,41.957956 L59.9486547,41.957956 C62.3589056,42.0543075 63.2958207,43.797918 62.0376403,45.8584342 L57.2147379,53.7568789 Z" id="Path-26" fill="#F8FBDC" sketch:type="MSShapeGroup" transform="translate(59.948655, 47.770187) rotate(188.000000) translate(-59.948655, -47.770187) "></path>
                <path d="M37.2147379,43.7568789 L36.1730593,36.1061621 C35.8480122,33.7188196 37.5433082,31.8618005 39.9486547,31.957956 L39.9486547,31.957956 C42.3589056,32.0543075 43.2958207,33.797918 42.0376403,35.8584342 L37.2147379,43.7568789 Z" id="Path-27" fill="#F8FBDC" sketch:type="MSShapeGroup" transform="translate(39.948655, 37.770187) rotate(188.000000) translate(-39.948655, -37.770187) "></path>
                <path d="M259.214738,40.7568789 L258.173059,33.1061621 C257.848012,30.7188196 259.543308,28.8618005 261.948655,28.957956 L261.948655,28.957956 C264.358906,29.0543075 265.295821,30.797918 264.03764,32.8584342 L259.214738,40.7568789 Z" id="Path-28" fill="#F8FBDC" sketch:type="MSShapeGroup" transform="translate(261.948655, 34.770187) rotate(188.000000) translate(-261.948655, -34.770187) "></path>
                <path d="M280.214738,30.7568789 L279.173059,23.1061621 C278.848012,20.7188196 280.543308,18.8618005 282.948655,18.957956 L282.948655,18.957956 C285.358906,19.0543075 286.295821,20.797918 285.03764,22.8584342 L280.214738,30.7568789 Z" id="Path-29" fill="#F8FBDC" sketch:type="MSShapeGroup" transform="translate(282.948655, 24.770187) rotate(188.000000) translate(-282.948655, -24.770187) "></path>
                <path d="M280.214738,51.7568789 L279.173059,44.1061621 C278.848012,41.7188196 280.543308,39.8618005 282.948655,39.957956 L282.948655,39.957956 C285.358906,40.0543075 286.295821,41.797918 285.03764,43.8584342 L280.214738,51.7568789 Z" id="Path-30" fill="#F8FBDC" sketch:type="MSShapeGroup" transform="translate(282.948655, 45.770187) rotate(188.000000) translate(-282.948655, -45.770187) "></path>
                <path d="M294.214738,40.7568789 L293.173059,33.1061621 C292.848012,30.7188196 294.543308,28.8618005 296.948655,28.957956 L296.948655,28.957956 C299.358906,29.0543075 300.295821,30.797918 299.03764,32.8584342 L294.214738,40.7568789 Z" id="Path-31" fill="#F8FBDC" sketch:type="MSShapeGroup" transform="translate(296.948655, 34.770187) rotate(188.000000) translate(-296.948655, -34.770187) "></path>
                <path d="M254.214738,61.7568789 L253.173059,54.1061621 C252.848012,51.7188196 254.543308,49.8618005 256.948655,49.957956 L256.948655,49.957956 C259.358906,50.0543075 260.295821,51.797918 259.03764,53.8584342 L254.214738,61.7568789 Z" id="Path-32" fill="#F8FBDC" sketch:type="MSShapeGroup" transform="translate(256.948655, 55.770187) rotate(188.000000) translate(-256.948655, -55.770187) "></path>
                <path d="M94.2147379,70.7568789 L93.1730593,63.1061621 C92.8480122,60.7188196 94.5433082,58.8618005 96.9486547,58.957956 L96.9486547,58.957956 C99.3589056,59.0543075 100.295821,60.797918 99.0376403,62.8584342 L94.2147379,70.7568789 Z" id="Path-33" fill="#F8FBDC" sketch:type="MSShapeGroup" transform="translate(96.948655, 64.770187) rotate(188.000000) translate(-96.948655, -64.770187) "></path>
                <path d="M34.2147379,63.7568789 L33.1730593,56.1061621 C32.8480122,53.7188196 34.5433082,51.8618005 36.9486547,51.957956 L36.9486547,51.957956 C39.3589056,52.0543075 40.2958207,53.797918 39.0376403,55.8584342 L34.2147379,63.7568789 Z" id="Path-34" fill="#F8FBDC" sketch:type="MSShapeGroup" transform="translate(36.948655, 57.770187) rotate(188.000000) translate(-36.948655, -57.770187) "></path>
                <path d="M294.214738,63.7568789 L293.173059,56.1061621 C292.848012,53.7188196 294.543308,51.8618005 296.948655,51.957956 L296.948655,51.957956 C299.358906,52.0543075 300.295821,53.797918 299.03764,55.8584342 L294.214738,63.7568789 Z" id="Path-35" fill="#F8FBDC" sketch:type="MSShapeGroup" transform="translate(296.948655, 57.770187) rotate(188.000000) translate(-296.948655, -57.770187) "></path>
                <path d="M294.214738,63.7568789 L293.173059,56.1061621 C292.848012,53.7188196 294.543308,51.8618005 296.948655,51.957956 L296.948655,51.957956 C299.358906,52.0543075 300.295821,53.797918 299.03764,55.8584342 L294.214738,63.7568789 Z" id="Path-36" fill="#F8FBDC" sketch:type="MSShapeGroup" transform="translate(296.948655, 57.770187) rotate(188.000000) translate(-296.948655, -57.770187) "></path>
            </g>
        </g>
    </g>
</svg>