<?xml version="1.0" encoding="UTF-8" standalone="no"?>
<svg width="50px" height="50px" viewBox="0 0 50 50" version="1.1" xmlns="http://www.w3.org/2000/svg" xmlns:xlink="http://www.w3.org/1999/xlink" xmlns:sketch="http://www.bohemiancoding.com/sketch/ns">
    <!-- Generator: Sketch 3.2.2 (9983) - http://www.bohemiancoding.com/sketch -->
    <title>fa-dribbble</title>
    <desc>Created with Sketch.</desc>
    <defs></defs>
    <g id="Page-2" stroke="none" stroke-width="1" fill="none" fill-rule="evenodd" sketch:type="MSPage">
        <g id="Desktop-HD" sketch:type="MSArtboardGroup" transform="translate(-627.000000, -1284.000000)" fill="#EA4C89">
            <g id="fa-dribbble" sketch:type="MSLayerGroup" transform="translate(627.000000, 1284.000000)">
                <path d="M12.8029474,45.8875789 C16.5444211,48.0981053 20.5713684,49.1743158 24.9949474,49.1743158 C29.416,49.1743158 33.4429474,48.0981053 37.1844211,45.8875789 C40.9284211,43.7326316 43.8766316,40.7818947 46.0315789,37.0404211 C48.2421053,33.2964211 49.3208421,29.2164211 49.3208421,24.8484211 C49.3208421,20.4248421 48.2421053,16.3423158 46.0315789,12.6008421 C43.8766316,8.91494737 40.9284211,5.96673684 37.1844211,3.75368421 C33.4429474,1.59873684 29.416,0.522526316 24.9949474,0.522526316 C20.5713684,0.522526316 16.5444211,1.59873684 12.8029474,3.75368421 C9.05894737,5.96673684 6.11073684,8.91494737 3.95578947,12.6008421 C1.74526316,16.3423158 0.666526316,20.4248421 0.666526316,24.8484211 C0.666526316,29.2164211 1.74526316,33.2964211 3.95578947,37.0404211 C6.11073684,40.7818947 9.05894737,43.7326316 12.8029474,45.8875789 L12.8029474,45.8875789 Z M4.29684211,24.1688421 C11.896,24.1688421 18.9823158,23.2037895 25.5608421,21.2206316 C26.2404211,22.5242105 26.8088421,23.7141053 27.2610526,24.7347368 C27.1473684,24.7928421 27.0362105,24.8484211 26.8088421,24.9065263 C26.6370526,24.9065263 26.5258947,24.9621053 26.4122105,25.0176842 L25.2197895,25.4168421 C24.4265263,25.6997895 23.4058947,26.2101053 22.1023158,26.9477895 C20.7987368,27.6273684 19.4370526,28.4787368 17.9616842,29.4993684 C16.4888421,30.4618947 15.0134737,31.7654737 13.4825263,33.4126316 C11.896,35.0547368 10.5898947,36.8130526 9.56926316,38.6850526 C7.86905263,36.8130526 6.56547368,34.7162105 5.65852632,32.3338947 C4.69347368,29.9515789 4.23873684,27.4581053 4.23873684,24.8484211 C4.23873684,24.5654737 4.23873684,24.3381053 4.29684211,24.1688421 L4.29684211,24.1688421 Z M8.72042105,11.9768421 C10.7616842,9.42526316 13.1995789,7.43957895 16.1477895,6.08042105 C18.7549474,9.53894737 21.3090526,13.5077895 23.8606316,17.9869474 C17.4513684,19.6896842 11.0446316,20.5385263 4.69347368,20.5385263 C5.37305263,17.3629474 6.73473684,14.5284211 8.72042105,11.9768421 L8.72042105,11.9768421 Z M20.0029474,4.71873684 C20.0029474,4.71873684 20.0029474,4.71873684 19.9473684,4.71873684 L20.0029474,4.71873684 L20.0029474,4.71873684 Z M24.9949474,4.09473684 C30.2117895,4.09473684 34.8046316,5.79494737 38.7153684,9.256 C38.6016842,9.42526316 38.4324211,9.59452632 38.3187368,9.82189474 C38.1494737,10.0492632 37.7528421,10.4458947 37.1288421,11.1254737 C36.5048421,11.7494737 35.7671579,12.3178947 35.0294737,12.8837895 C34.2943158,13.4522105 33.2736842,14.1317895 31.9675789,14.8694737 C30.7221053,15.5490526 29.3023158,16.2286316 27.8850526,16.7389474 C25.4471579,12.3178947 22.84,8.29094737 20.1166316,4.71873684 C21.7612632,4.32210526 23.4058947,4.09473684 24.9949474,4.09473684 L24.9949474,4.09473684 Z M33.6122105,17.8176842 C34.9183158,17.0244211 35.9945263,16.3423158 36.7877895,15.7764211 C37.5810526,15.1524211 38.3187368,14.5284211 39.0008421,13.8488421 C39.736,13.1667368 40.1907368,12.7145263 40.4181053,12.4290526 C40.5873684,12.2042105 40.8147368,11.9212632 40.984,11.6938947 L41.0421053,11.6357895 C44.104,15.3797895 45.6905263,19.7452632 45.7486316,24.6210526 L45.4075789,24.5654737 C45.2383158,24.5073684 44.9528421,24.4517895 44.6143158,24.3962105 C44.3313684,24.3381053 43.9322105,24.2825263 43.48,24.2244211 C43.0252632,24.1688421 42.5149474,24.0551579 41.9490526,23.9995789 C41.3806316,23.9414737 40.8147368,23.8858947 40.1907368,23.8277895 C39.5667368,23.7722105 38.8871579,23.7141053 38.1494737,23.7141053 C37.4117895,23.6585263 36.7322105,23.6585263 35.9945263,23.6585263 C35.2568421,23.6585263 34.4635789,23.6585263 33.6703158,23.7141053 C32.8189474,23.7722105 32.0256842,23.8277895 31.288,23.9414737 C31.2324211,23.8277895 31.1743158,23.6585263 31.0606316,23.4311579 C30.9469474,23.1482105 30.8913684,22.9764211 30.8332632,22.8627368 C30.4366316,21.9557895 29.9844211,20.9932632 29.4741053,19.8589474 C30.8913684,19.2349474 32.3086316,18.5553684 33.6122105,17.8176842 L33.6122105,17.8176842 Z M45.5212632,28.1376842 C45.0109474,30.9722105 43.9903158,33.6374737 42.4593684,36.0753684 C40.8703158,38.4576842 38.9427368,40.4989474 36.6185263,42.0298947 C35.7671579,37.2096842 34.408,32.2757895 32.536,27.2307368 C36.7322105,26.5511579 41.0421053,26.8341053 45.5212632,28.1376842 L45.5212632,28.1376842 Z M12.2345263,41.1785263 C12.9722105,39.592 14.0509474,38.0054737 15.5237895,36.5301053 C16.9410526,34.9991579 18.3027368,33.8092632 19.6644211,32.8997895 C20.968,31.9928421 22.4433684,31.0858947 23.9743158,30.2926316 C25.5608421,29.4993684 26.5814737,28.9890526 27.2054737,28.7616842 C27.7713684,28.5343158 28.2261053,28.3650526 28.5090526,28.1932632 L28.6783158,28.1932632 C30.7221053,33.6374737 32.1949474,38.8543158 33.1018947,43.9574737 C30.4947368,45.0362105 27.7713684,45.6021053 24.9949474,45.6021053 C20.2303158,45.6021053 15.9785263,44.1292632 12.2345263,41.1785263 L12.2345263,41.1785263 Z" id="Fill-1" sketch:type="MSShapeGroup"></path>
            </g>
        </g>
    </g>
</svg>