<?xml version="1.0" encoding="UTF-8" standalone="no"?>
<svg width="50px" height="49px" viewBox="0 0 50 49" version="1.1" xmlns="http://www.w3.org/2000/svg" xmlns:xlink="http://www.w3.org/1999/xlink" xmlns:sketch="http://www.bohemiancoding.com/sketch/ns">
    <!-- Generator: Sketch 3.2.2 (9983) - http://www.bohemiancoding.com/sketch -->
    <title>fa-github</title>
    <desc>Created with Sketch.</desc>
    <defs></defs>
    <g id="Page-2" stroke="none" stroke-width="1" fill="none" fill-rule="evenodd" sketch:type="MSPage">
        <g id="Desktop-HD" sketch:type="MSArtboardGroup" transform="translate(-701.000000, -1283.000000)" fill="#FFFFFF">
            <g id="fa-github" sketch:type="MSLayerGroup" transform="translate(701.000000, 1283.000000)">
                <path d="M5.32,39.2661053 C8.38189474,43.5178947 12.4088421,46.4661053 17.2846316,48.0551579 C17.8530526,48.1688421 18.2496842,48.1107368 18.5326316,47.8277895 C18.8155789,47.6004211 18.9292632,47.2618947 18.9292632,46.9208421 L18.9292632,45.2181053 L18.9292632,42.3835789 L18.1915789,42.4972632 C17.7393684,42.6109474 17.1709474,42.6109474 16.4357895,42.6109474 C15.7536842,42.6109474 15.016,42.5553684 14.2227368,42.3835789 C13.4850526,42.2698947 12.7498947,41.9313684 12.1258947,41.4210526 C11.4437895,40.9663158 10.9915789,40.2867368 10.7086316,39.4909474 L10.4231579,38.7557895 C10.1983158,38.3010526 9.85726316,37.7351579 9.40252632,37.1667368 C8.95031579,36.5427368 8.49557895,36.1461053 8.04336842,35.9768421 L7.816,35.8075789 C7.64673684,35.6938947 7.53305263,35.5802105 7.41936842,35.4084211 C7.30568421,35.2972632 7.192,35.1254737 7.13389474,34.9562105 C7.07831579,34.8425263 7.13389474,34.7288421 7.30568421,34.6151579 C7.41936842,34.5014737 7.75789474,34.4458947 8.21263158,34.4458947 L8.83663158,34.5595789 C9.23326316,34.6732632 9.79915789,34.8981053 10.3675789,35.2972632 C10.9915789,35.7494737 11.5018947,36.3178947 11.9541053,36.9393684 C12.4088421,37.8488421 12.9747368,38.4703158 13.7124211,38.9250526 C14.3945263,39.3797895 15.0741053,39.6046316 15.7536842,39.6046316 C16.4357895,39.6046316 17.0572632,39.5490526 17.5701053,39.4909474 C18.0778947,39.3797895 18.5326316,39.208 18.9873684,38.9806316 C19.1566316,37.5633684 19.6669474,36.4871579 20.5183158,35.7494737 C19.3258947,35.5802105 18.2496842,35.4084211 17.2846316,35.1835789 C16.3221053,34.8981053 15.3570526,34.5014737 14.3364211,33.9355789 C13.3157895,33.3671579 12.4644211,32.632 11.7848421,31.8362105 C11.1052632,30.9873684 10.5368421,29.8530526 10.0846316,28.4913684 C9.688,27.1296842 9.46063158,25.5431579 9.46063158,23.7292632 C9.46063158,21.1776842 10.312,19.0227368 11.9541053,17.2063158 C11.1608421,15.2787368 11.2745263,13.1237895 12.1814737,10.744 C12.8054737,10.5722105 13.7124211,10.744 14.9048421,11.1962105 C16.0947368,11.6509474 17.0016842,12.0475789 17.5701053,12.3861053 C18.0778947,12.7271579 18.5326316,13.0101053 18.8736842,13.2955789 C20.8568421,12.7271579 22.8981053,12.4442105 24.9974737,12.4442105 C27.0387368,12.4442105 29.08,12.7271579 31.0656842,13.2955789 L32.2555789,12.4997895 C33.0488421,11.9894737 34.0694737,11.5372632 35.1482105,11.1406316 C36.2825263,10.6858947 37.1313684,10.5722105 37.6997895,10.744 C38.6623158,13.1237895 38.776,15.2787368 37.9827368,17.2063158 C39.6273684,19.0227368 40.4787368,21.1776842 40.4787368,23.7292632 C40.4787368,25.5431579 40.2513684,27.1296842 39.8547368,28.4913684 C39.4,29.9086316 38.8341053,30.9873684 38.152,31.8362105 C37.4724211,32.632 36.6210526,33.3671579 35.6004211,33.9355789 C34.5797895,34.5014737 33.5591579,34.8981053 32.5966316,35.1835789 C31.6315789,35.4084211 30.5553684,35.5802105 29.3629474,35.7494737 C30.4416842,36.6564211 31.0075789,38.1873684 31.0075789,40.2286316 L31.0075789,46.9208421 C31.0075789,47.2618947 31.1212632,47.6004211 31.4042105,47.8277895 C31.6896842,48.1107368 32.0863158,48.1688421 32.6522105,48.0551579 C37.528,46.4661053 41.5549474,43.5178947 44.6168421,39.2661053 C47.7368421,35.0698947 49.2677895,30.3052632 49.2677895,25.0328421 C49.2677895,20.6092632 48.1890526,16.5267368 46.0341053,12.7852632 C43.8235789,9.09936842 40.8753684,6.14863158 37.1894737,3.93810526 C33.4454737,1.78315789 29.3629474,0.706947368 24.9974737,0.706947368 C20.5738947,0.706947368 16.4913684,1.78315789 12.7498947,3.93810526 C9.064,6.14863158 6.11578947,9.09936842 3.90273684,12.7852632 C1.74778947,16.5267368 0.671578947,20.6092632 0.671578947,25.0328421 C0.671578947,30.3052632 2.20252632,35.0698947 5.32,39.2661053" id="Fill-172" sketch:type="MSShapeGroup"></path>
            </g>
        </g>
    </g>
</svg>