<?xml version="1.0" encoding="UTF-8" standalone="no"?>
<svg width="123px" height="123px" viewBox="0 0 123 123" version="1.1" xmlns="http://www.w3.org/2000/svg" xmlns:xlink="http://www.w3.org/1999/xlink" xmlns:sketch="http://www.bohemiancoding.com/sketch/ns">
    <!-- Generator: Sketch 3.2.2 (9983) - http://www.bohemiancoding.com/sketch -->
    <title>me badge</title>
    <desc>Created with Sketch.</desc>
    <defs></defs>
    <g id="Page-2" stroke="none" stroke-width="1" fill="none" fill-rule="evenodd" sketch:type="MSPage">
        <g id="Desktop-HD" sketch:type="MSArtboardGroup" transform="translate(-66.000000, -1248.000000)">
            <g id="me-badge" sketch:type="MSLayerGroup" transform="translate(66.000000, 1248.000000)">
                <circle id="Oval-3" fill="#7E78A7" sketch:type="MSShapeGroup" cx="61.5" cy="61.5" r="61.5"></circle>
                <path d="M26.7210967,55.7588647 C24.6659917,39.8757823 35.6882471,24.2836126 51.3744226,21.0479242 C51.3744226,21.0479242 60.3252614,18.8762445 63.8874626,18.8762445 C65.993956,18.8762445 69.8568599,20.0880638 69.8568599,20.0880638 C85.399887,23.9054208 97.105729,39.9585459 96.0030479,55.9370848 L95.3517268,65.3751338 C94.2488406,81.3566445 83.8017237,94.3122187 83.8017237,94.3122187 C83.8017237,94.3122187 83.8043419,94.3118687 83.8017237,94.3122187 C83.7991055,94.3125687 71.9212289,103.613682 71.9194834,103.613915 C71.9194834,103.613915 58.7819317,103.658285 57.8152888,103.613915 C56.526543,103.554762 42.9771502,94.3122187 42.9771502,94.3122187 L42.9771502,94.3122187 C36.2796529,90.6446522 29.1854207,74.804637 27.1291619,58.9126374 L26.7210967,55.7588647 Z" id="Rectangle-29" fill="#B9A68E" sketch:type="MSShapeGroup"></path>
                <path d="M35.9061908,35.034721 L43.1683187,22.8819863 C43.1683187,22.8819863 41.2841324,22.0737988 39.6221618,22.8819863 C37.959453,23.6905327 36.5188237,26.1154543 35.9061908,26.1154543 C34.681197,26.1154544 26.24092,44.984574 26.24092,44.984574 L26.24092,58.5369379 L35.9061908,35.034721 Z" id="Path-89" fill="#2D2D2D" sketch:type="MSShapeGroup"></path>
                <path d="M87.9061908,36.034721 L95.1683187,23.8819863 C95.1683187,23.8819863 93.2841324,23.0737988 91.6221618,23.8819863 C89.959453,24.6905327 88.5188237,27.1154543 87.9061908,27.1154543 C86.681197,27.1154544 78.24092,45.984574 78.24092,45.984574 L78.24092,59.5369379 L87.9061908,36.034721 Z" id="Path-90" fill="#2D2D2D" sketch:type="MSShapeGroup" transform="translate(86.704619, 41.529865) scale(-1, 1) translate(-86.704619, -41.529865) "></path>
                <path d="M27,51.5348202 C27,47.6734557 30.0520889,43.8341697 33.8369859,42.9979329 C33.8369859,42.9979329 39.8986292,41.4526646 43,41.4526646 C46.5275789,41.4526646 52.1975418,42.9707713 52.1975418,42.9707713 C55.9544357,43.8392004 59,47.6735592 59,51.5348202 L59,53.4561794 C59,60.0816552 53.6258815,65.4526646 46.9933381,65.4526646 L39.0066619,65.4526646 C32.3755656,65.4526646 27,60.0815395 27,53.4561794 L27,51.5348202 Z" id="Rectangle-26" stroke="#414141" stroke-width="2" fill="#F2F2F2" sketch:type="MSShapeGroup"></path>
                <path d="M64,51.6683988 C64,47.8043799 67.0520889,43.9333991 70.8158244,43.0670349 C70.8158244,43.0670349 76.8986292,41.4526646 80,41.4526646 C83.5275789,41.4526646 89.2184493,43.0387409 89.2184493,43.0387409 C92.9637963,43.9407504 96,47.8158118 96,51.6683988 L96,53.9563259 C96,60.8578632 90.407727,66.4526646 83.4904793,66.4526646 L76.5095207,66.4526646 C69.6007032,66.4526646 64,60.8577426 64,53.9563259 L64,51.6683988 Z" id="Rectangle-27" stroke="#414141" stroke-width="2" fill="#F2F2F2" sketch:type="MSShapeGroup"></path>
                <path d="M59.0157956,67.0213227 C59.0157956,67.0213227 43.7356389,66.945816 31.4702073,77.4679263 C31.4702073,77.4679263 54.8007323,78.061988 59.2267708,73.4016569 C63.6528092,68.7413257 59.0157956,67.0213227 59.0157956,67.0213227 Z" id="Path-84" fill="#2D2D2D" sketch:type="MSShapeGroup"></path>
                <path d="M65.5950648,67.0213227 C65.5950648,67.0213227 80.8752215,66.945816 93.1406531,77.4679263 C93.1406531,77.4679263 69.8101281,78.061988 65.3840896,73.4016569 C60.9580512,68.7413257 65.5950648,67.0213227 65.5950648,67.0213227 Z" id="Path-85" fill="#2D2D2D" sketch:type="MSShapeGroup"></path>
                <path d="M61.1310323,86.2197147 C59.9629323,85.1062028 58.5416566,82.2462487 58.5416566,82.2462487 C58.5416566,82.2462487 64.2535329,79.7123255 66.8129948,82.0485983 C69.3724566,84.384871 63.0560256,89.1010972 63.0560256,89.1010972 C63.0560256,89.1010972 61.990515,87.0390318 61.1310323,86.2197147 Z" id="Path-86" fill="#2D2D2D" sketch:type="MSShapeGroup"></path>
                <path d="M58.2826828,52.8748675 C58.2826828,52.8748675 62.0070705,51.08339 65.2209208,52.8748675" id="Path-87" stroke="#454444" stroke-width="3" sketch:type="MSShapeGroup"></path>
                <path d="M62.8034769,26.1660189 C54.8224329,25.5051526 37.9275594,28.8659548 37.9275594,28.8659548 C37.9275594,28.8659548 44.612312,12.6393524 51.3404096,11.4131871 C51.3404096,11.4131871 52.3838801,12.562058 52.3838794,13.9041639 L59.7642911,6.74509431 L60.5852477,8.80509815 L64.8106564,6.45816939 C64.8106564,6.45816939 67.8344936,7.46065009 66.3225751,10.6824069 L70.4695186,8.29683114 L73.9372112,11.5958822 L74.8893335,14.0329874 L78.9191648,14.0329874 L83.1434023,19.7047319 L85.3989835,25.0380221 L84.0682047,29.815267 C84.0682047,29.815267 70.1395393,26.7734778 62.8034769,26.1660189 Z" id="Path-88" fill="#2D2D2D" sketch:type="MSShapeGroup"></path>
                <path d="M48.2813655,98.1345784 C48.2813655,98.1345784 62.5856062,90.5422681 79.3189,97.3365925 C79.3189,97.3365925 74.5502883,101.938476 70.6722728,106.611845 C69.3773659,108.172328 57.1324493,106.611845 57.1324493,106.611845 L48.2813655,98.1345784 Z" id="Path-91" fill="#2D2D2D" sketch:type="MSShapeGroup"></path>
            </g>
        </g>
    </g>
</svg>