<?xml version="1.0" encoding="UTF-8" standalone="no"?>
<svg width="59px" height="48px" viewBox="0 0 59 48" version="1.1" xmlns="http://www.w3.org/2000/svg" xmlns:xlink="http://www.w3.org/1999/xlink" xmlns:sketch="http://www.bohemiancoding.com/sketch/ns">
    <!-- Generator: Sketch 3.2.2 (9983) - http://www.bohemiancoding.com/sketch -->
    <title>fa-twitter</title>
    <desc>Created with Sketch.</desc>
    <defs></defs>
    <g id="Page-2" stroke="none" stroke-width="1" fill="none" fill-rule="evenodd" sketch:type="MSPage">
        <g id="Desktop-HD" sketch:type="MSArtboardGroup" transform="translate(-772.000000, -1286.000000)" fill="#55ACEE">
            <g id="fa-twitter" sketch:type="MSLayerGroup" transform="translate(772.000000, 1286.000000)">
                <path d="M19.1498361,47.3632653 C23.3901639,47.3632653 27.3619672,46.7049796 31.1390164,45.3854694 C34.8481967,43.9983673 38.0262295,42.2174694 40.6760656,39.9751837 C43.2580328,37.732898 45.577377,35.1614694 47.4983607,32.2579592 C49.3514754,29.2897959 50.8091803,26.2540408 51.7357377,23.0889796 C52.6652459,19.9239184 53.1285246,16.7559184 53.1285246,13.5232653 L53.1285246,12.0068571 C55.444918,10.293551 57.4337705,8.24816327 59.0891803,5.87363265 C56.7698361,6.79640816 54.5183607,7.45469388 52.1990164,7.65453061 C54.7839344,6.13518367 56.5721311,3.9604898 57.4337705,1.12457143 C55.1144262,2.50873469 52.597377,3.49910204 49.882623,4.02514286 C47.4983607,1.51836735 44.5829508,0.26644898 41.1393443,0.26644898 C37.8934426,0.26644898 35.0459016,1.38612245 32.7265574,3.696 C30.4101639,6.07053061 29.2180328,8.84179592 29.2180328,12.139102 C29.2180328,12.9972245 29.3508197,13.92 29.5485246,14.8427755 C24.6472131,14.6458776 20.0763934,13.3910204 15.7711475,11.2163265 C11.5337705,8.97404082 7.8895082,6.07053061 4.90918033,2.44408163 C3.84983607,4.28963265 3.25377049,6.26742857 3.25377049,8.44506122 C3.25377049,10.4228571 3.78491803,12.336 4.71147541,14.116898 C5.70590164,15.8331429 6.96295082,17.2173061 8.61836066,18.3399184 C6.69737705,18.2723265 4.90918033,17.7462857 3.18885246,16.8235102 L3.18885246,16.9557551 C3.18885246,19.8563265 4.11540984,22.363102 5.90360656,24.5407347 C7.75672131,26.7183673 10.0081967,28.0349388 12.7908197,28.6285714 C11.7314754,28.8930612 10.6721311,29.0253061 9.61278689,29.0253061 C8.94885246,29.0253061 8.22,28.9606531 7.36131148,28.8284082 C8.15508197,31.2029388 9.54491803,33.1807347 11.5986885,34.7000816 C13.652459,36.2811429 15.9718033,37.0716735 18.5537705,37.0716735 C14.1836066,40.5041633 9.28229508,42.1528163 3.71704918,42.1528163 C2.65770492,42.1528163 1.73114754,42.1528163 0.869508197,42.0205714 C6.36688525,45.5823673 12.5252459,47.3632653 19.1498361,47.3632653" id="Fill-178" sketch:type="MSShapeGroup"></path>
            </g>
        </g>
    </g>
</svg>