<?xml version="1.0" standalone="no"?>
<!DOCTYPE svg PUBLIC "-//W3C//DTD SVG 1.1//EN" "http://www.w3.org/Graphics/SVG/1.1/DTD/svg11.dtd" >
<svg xmlns="http://www.w3.org/2000/svg" xmlns:xlink="http://www.w3.org/1999/xlink" version="1.1">
<metadata>
Created by FontForge 20150102 at Mon Mar 16 19:49:47 2015
 By uniteet7
2013
</metadata>
<defs>
<font id="FatFrankSampleRegular" horiz-adv-x="600" >
  <font-face 
    font-family="FatFrankSampleRegular"
    font-weight="400"
    font-stretch="normal"
    units-per-em="1000"
    panose-1="0 0 5 0 0 0 0 0 0 0"
    ascent="725"
    descent="-275"
    x-height="503"
    cap-height="690"
    bbox="-23 -188 1043 904.667"
    underline-thickness="50"
    underline-position="-50"
    unicode-range="U+0020-20AC"
  />
<missing-glyph horiz-adv-x="500" 
d="M0 0v700h500v-700h-500zM250 395l170 255h-340zM280 350l170 -255v510zM80 50h340l-170 255zM50 605v-510l170 255z" />
    <glyph glyph-name="f_f" unicode="ff" horiz-adv-x="752" 
d="M717 549q15 0 15 -14l-11 -97q-2 -15 -15 -15h-104v-408q0 -6 -4.5 -10.5t-10.5 -4.5h-164q-6 0 -10.5 4.5t-4.5 10.5v408h-101v-408q0 -6 -4.5 -10.5t-10.5 -4.5h-164q-6 0 -10.5 4.5t-4.5 10.5v408h-79q-14 0 -14 15v97q0 6 4.5 10t9.5 4h83q0 88 60.5 132t163.5 44
q80 0 136 -37q52 47 128 47h97q15 0 15 -16v-102q-3 -13 -12 -13h-51q-23 0 -37.5 -16t-14.5 -39h115zM411 549q0 23 -14.5 39t-37.5 16t-37.5 -16t-14.5 -39h104z" />
    <glyph glyph-name="f_f_i" unicode="ffi" horiz-adv-x="1039" 
d="M944 549q15 0 15 -15v-520q0 -14 -15 -14h-163q-6 0 -10 4.5t-4 9.5v409h-165v-408q0 -6 -4.5 -10.5t-10.5 -4.5h-164q-6 0 -10.5 4.5t-4.5 10.5v408h-101v-408q0 -6 -4.5 -10.5t-10.5 -4.5h-164q-6 0 -10.5 4.5t-4.5 10.5v408h-79q-14 0 -14 15v97q0 6 4.5 10t9.5 4h83
q0 88 60.5 132t163.5 44q80 0 136 -37q52 47 128 47h97q15 0 15 -16v-102q-3 -13 -12 -13h-51q-23 0 -37.5 -16t-14.5 -39h342zM863 580q-50 0 -73 21.5t-23 50.5t22.5 51t73.5 22t73.5 -21.5t22.5 -51.5q0 -29 -22.5 -50.5t-73.5 -21.5zM411 549q0 23 -14.5 39t-37.5 16
t-37.5 -16t-14.5 -39h104z" />
    <glyph glyph-name="f_f_l" unicode="ffl" horiz-adv-x="1046" 
d="M772 735q84 0 139 -53t55 -133v-534q0 -6 -4.5 -10.5t-10.5 -4.5h-164q-6 0 -10 4.5t-2 10.5v534q0 23 -14.5 39t-37.5 16h-69q-23 0 -37.5 -16t-14.5 -39h115q15 0 15 -14l-11 -97q-2 -15 -15 -15h-104v-408q0 -6 -4.5 -10.5t-10.5 -4.5h-164q-6 0 -10.5 4.5t-4.5 10.5
v408h-101v-408q0 -6 -4.5 -10.5t-10.5 -4.5h-164q-6 0 -10.5 4.5t-4.5 10.5v408h-79q-14 0 -14 15v97q0 6 4.5 10t9.5 4h83q0 88 60.5 132t163.5 44q80 0 136 -37q52 47 128 47h167zM411 549q0 23 -14.5 39t-37.5 16t-37.5 -16t-14.5 -39h104z" />
    <glyph glyph-name=".notdef" horiz-adv-x="500" 
d="M0 0v700h500v-700h-500zM250 395l170 255h-340zM280 350l170 -255v510zM80 50h340l-170 255zM50 605v-510l170 255z" />
    <glyph glyph-name=".null" horiz-adv-x="0" 
 />
    <glyph glyph-name="nonmarkingreturn" horiz-adv-x="333" 
 />
    <glyph glyph-name="space" unicode=" " horiz-adv-x="350" 
 />
    <glyph glyph-name="exclam" unicode="!" horiz-adv-x="352" 
d="M95 689q-15 0 -15 -14l14 -498q0 -15 15 -15h133q14 0 14 15l16 499q0 6 -4 10t-10 3h-163zM176 131q-51 0 -73.5 -21.5t-22.5 -50.5q0 -30 22.5 -51.5t73.5 -21.5t73.5 22t22.5 51t-23 50.5t-73 21.5z" />
    <glyph glyph-name="quotedbl" unicode="&#x22;" horiz-adv-x="398" 
d="M127 556h-12q-75 0 -75 72q0 73 75 73q45 0 60 -26t15 -77q0 -58 -25.5 -85.5t-58.5 -27.5h-37q-4 1 -4 6l3 36q1 7 8 7h30q9 0 15 6t6 14v2zM295 556h-12q-75 0 -75 72q0 73 75 73q45 0 60 -26t15 -77q0 -58 -25.5 -85.5t-58.5 -27.5h-37q-4 1 -4 6l3 36q1 7 8 7h30
q9 0 15 6t6 14v2z" />
    <glyph glyph-name="dollar" unicode="$" horiz-adv-x="666" 
d="M367 702l-1 1q81 -9 171 -39q13 -6 8 -19l-57 -153q-7 -11 -19 -8q-91 26 -143 26q-68 0 -68 -28q0 -29 68 -29q131 0 210 -66.5t79 -166.5q0 -90 -66.5 -154.5t-182.5 -76.5v-38q0 -14 -15 -14h-62q-14 0 -14 14v37q-101 9 -213 51q-11 6 -7 17l61 162q1 5 7.5 7.5
t10.5 0.5q120 -39 183 -39q85 0 85 36t-86 36q-116 0 -191 64.5t-75 158.5q0 84 63.5 145.5t162.5 74.5v41q0 15 14 15h62q15 0 15 -15v-41z" />
    <glyph glyph-name="ampersand" unicode="&#x26;" horiz-adv-x="858" 
d="M758 290q-2 -15 -15 -15h-104v-78q0 -23 14.5 -39t37.5 -16h51q9 0 12 -13v-102q0 -16 -15 -16h-97q-31 0 -63 10q-120 -35 -206 -35q-112 0 -195 64t-83 183q0 89 49 149q-25 44 -25 104q0 106 76 162.5t184 56.5q107 0 183.5 -56t76.5 -159v-36h115q15 0 15 -14z
M443 493q0 17 -18.5 28t-50.5 11t-50.5 -11t-18.5 -28t18 -28t51 -11h69v39zM374 275q-38 0 -59 -12.5t-21 -32.5t21 -33.5t59 -13.5q29 0 69 8v84h-69z" />
    <glyph glyph-name="quotesingle" unicode="'" horiz-adv-x="230" 
d="M127 556h-12q-75 0 -75 72q0 73 75 73q45 0 60 -26t15 -77q0 -58 -25.5 -85.5t-58.5 -27.5h-37q-4 1 -4 6l3 36q1 7 8 7h30q9 0 15 6t6 14v2z" />
    <glyph glyph-name="asterisk" unicode="*" horiz-adv-x="311" 
d="M258 619q13 0 13 -13v-36q0 -14 -14 -14h-52l40 -57q8 -11 -4 -19l-29 -20q-12 -8 -20 3l-36 53l-37 -53q-8 -11 -20 -3l-29 20q-12 8 -4 19l40 57h-52q-14 0 -14 14v36q0 13 13 13h71v58q0 13 13 13h36q14 0 14 -14v-57h71z" />
    <glyph glyph-name="plus" unicode="+" horiz-adv-x="428" 
d="M373 323q15 0 15 -14v-62q0 -15 -15 -15h-113v-113q0 -15 -14 -15h-62q-15 0 -15 15v113h-115q-14 0 -14 15v62q0 6 4.5 10t9.5 4h115v115q0 14 15 14h62q6 0 10 -4.5t4 -9.5v-115h113z" />
    <glyph glyph-name="comma" unicode="," horiz-adv-x="230" 
d="M127 -14h-12q-75 0 -75 72q0 73 75 73q45 0 60 -26t15 -77q0 -58 -25.5 -85.5t-58.5 -27.5h-37q-4 1 -4 6l3 36q1 7 8 7h30q9 0 15 6t6 14v2z" />
    <glyph glyph-name="hyphen" unicode="-" horiz-adv-x="351" 
d="M311 247q0 -15 -15 -15h-242q-14 0 -14 15v62q0 6 4.5 10t9.5 4h242q15 0 15 -14v-62z" />
    <glyph glyph-name="period" unicode="." horiz-adv-x="230" 
d="M115 -14q75 0 75 72q0 73 -75 73t-75 -73q0 -72 75 -72z" />
    <glyph glyph-name="zero" unicode="0" horiz-adv-x="711" 
d="M661 345q0 360 -305 360q-306 0 -306 -360t306 -360q305 0 305 360zM458 345q0 -84 -19.5 -123t-82.5 -39q-64 0 -83.5 39t-19.5 123q0 85 19.5 124t83.5 39q33 0 54.5 -11t31.5 -34.5t13 -49.5t3 -68z" />
    <glyph glyph-name="one" unicode="1" horiz-adv-x="391" 
d="M36 519q-6 0 -10 3t-3 9l17 145q2 15 16 15h241q14 0 14 -15v-661q0 -15 -14 -15h-177q-15 0 -15 15v504h-69z" />
    <glyph glyph-name="two" unicode="2" horiz-adv-x="628" 
d="M548 14q0 -14 -15 -14h-456q-15 0 -15 14v90q0 12 10 24l236 294q29 35 29 64q0 15 -15 27t-50 12q-27 0 -55 -8.5t-48.5 -18t-26.5 -10.5q-13 -3 -17 8l-54 142q-5 12 8 17q87 31 124 40.5t79 9.5q109 0 176 -55.5t67 -165.5q0 -70 -45 -133l-109 -153h162q15 0 15 -14
v-170z" />
    <glyph glyph-name="three" unicode="3" horiz-adv-x="623" 
d="M91 202q1 5 7.5 7.5t10.5 0.5q114 -38 185 -38q38 0 59 13t21 33q0 21 -20.5 33.5t-59.5 12.5h-128q-14 0 -16 15l-19 149q-2 15 13 15h150q33 0 51 11t18 28t-18.5 28t-50.5 11q-68 0 -154 -26q-11 -3 -18 8l-54 145q-5 14 8 17q115 40 213 40q108 0 184 -58t76 -168
q0 -64 -25 -108q49 -60 49 -149q0 -120 -83 -183.5t-201 -63.5q-112 0 -251 52q-3 1 -6 6t-1 10z" />
    <glyph glyph-name="four" unicode="4" horiz-adv-x="651" 
d="M557 445q14 0 14 -13v-417q0 -15 -14 -15h-177q-15 0 -15 15v120h-303q-10 0 -17 7t-5 17l72 515q2 17 19 17h179q10 0 16 -7t5 -17l-50 -361h90v123q0 6 4.5 11t10.5 5h171z" />
    <glyph glyph-name="five" unicode="5" horiz-adv-x="636" 
d="M280 492v-44h31q57 0 103.5 -10.5t86.5 -34.5t62.5 -68t22.5 -105t-23.5 -108.5t-63.5 -76.5t-89.5 -44t-104.5 -15q-108 0 -247 51q-11 6 -7 16l59 157q1 5 7.5 7.5t10.5 0.5q108 -37 182 -37q38 0 59 13t21 32q0 20 -21 33t-59 13h-211q-15 0 -15 15v390q0 5 5 10t10 5
h432q14 0 14 -15l-20 -171q-2 -14 -16 -14h-229z" />
    <glyph glyph-name="six" unicode="6" horiz-adv-x="677" 
d="M352 -14q-302 0 -302 360t306 360q87 0 199 -39q13 -5 8 -17l-54 -143q-5 -11 -18 -8q-83 26 -140 26q-41 0 -71.5 -16t-30.5 -48q45 13 98 13q116 0 198 -62.5t82 -181.5t-79.5 -181.5t-195.5 -62.5zM266 246q0 -65 81 -65q40 0 62 13.5t22 34.5q0 22 -22 35t-62 13
q-66 0 -82 -31h1z" />
    <glyph glyph-name="seven" unicode="7" horiz-adv-x="593" 
d="M285 488l-201 -418q-3 -5 -0.5 -11t8.5 -8l158 -80q15 -5 20 7l266 558q7 14 7 28v111q0 6 -4.5 10.5t-9.5 4.5h-453q-14 0 -16 -14l-20 -174q0 -14 13 -14h232z" />
    <glyph glyph-name="eight" unicode="8" horiz-adv-x="661" 
d="M563 376q48 -51 48 -146q0 -80 -41 -137t-102.5 -82t-136.5 -25q-74 0 -136 25t-103.5 82t-41.5 137q0 86 49 148q-26 42 -26 105q0 109 75.5 166t182.5 57t182 -57t75 -166q0 -62 -25 -107zM331 524q-35 0 -54.5 -11.5t-19.5 -29.5q0 -21 21 -29t65 -12q30 1 46 12.5
t16 28.5q0 18 -19.5 29.5t-54.5 11.5zM331 181q40 0 62.5 13.5t22.5 34.5q0 20 -18 30.5t-53 17.5h-14q-41 0 -63 -13.5t-22 -34.5t22 -34.5t63 -13.5z" />
    <glyph glyph-name="nine" unicode="9" horiz-adv-x="676" 
d="M325 705q301 0 301 -360t-306 -360q-95 0 -210 39q-13 5 -8 18l54 142q4 12 18 8q89 -25 151 -25q42 0 72.5 16t30.5 47q-46 -13 -98 -13q-117 0 -198.5 62.5t-81.5 181.5q0 81 40 137.5t100.5 81.5t134.5 25zM330 414q64 0 81 31q0 65 -81 65q-40 0 -62.5 -13.5
t-22.5 -34.5t22 -34.5t63 -13.5z" />
    <glyph glyph-name="colon" unicode=":" horiz-adv-x="284" 
d="M141 386q75 0 75 72q0 73 -75 73t-75 -73q0 -72 75 -72zM141 -14q75 0 75 72q0 73 -75 73t-75 -73q0 -72 75 -72z" />
    <glyph glyph-name="semicolon" unicode=";" horiz-adv-x="284" 
d="M141 386q75 0 75 72q0 73 -75 73t-75 -73q0 -72 75 -72zM155 -12h-12q-75 0 -75 72q0 73 75 73q45 0 60 -26t15 -77q0 -58 -25.5 -85.5t-58.5 -27.5h-37q-4 1 -4 6l3 36q1 7 8 7h30q9 0 15 6t6 14v2z" />
    <glyph glyph-name="equal" unicode="=" horiz-adv-x="355" 
d="M41 384q0 15 15 15h245q14 0 14 -15v-62q0 -6 -4.5 -10t-9.5 -4h-245q-15 0 -15 14v62zM314 171q0 -15 -15 -15h-245q-14 0 -14 15v62q0 6 4.5 10t9.5 4h245q15 0 15 -14v-62z" />
    <glyph glyph-name="question" unicode="?" horiz-adv-x="464" 
d="M103 219q0 54 20 98t44 68t44 54t20 58q0 25 -13.5 41.5t-42.5 16.5q-44 0 -103 -19q-11 -2 -13 7q-35 109 -38 115q-3 10 7 13q90 30 158 30q116 0 177.5 -52t61.5 -139q0 -43 -16 -79t-38.5 -61t-45.5 -47.5t-39.5 -49t-17.5 -54.5l-2 -45q0 -12 -14 -12h-133
q-14 0 -16 12v45zM186 131q50 0 73 -21.5t23 -50.5t-22.5 -51t-73.5 -22t-73.5 21.5t-22.5 51.5q0 29 22.5 50.5t73.5 21.5z" />
    <glyph glyph-name="at" unicode="@" horiz-adv-x="946" 
d="M633 -129q7 -16 -9 -21q-72 -26 -149 -26q-181 0 -308 126.5t-127 306.5t127 306.5t308 126.5q180 0 305.5 -127t125.5 -317q0 -122 -52.5 -201t-128.5 -79q-39 0 -71.5 21t-48.5 56h-1q-49 -51 -129 -51q-111 0 -189 77.5t-78 187.5q0 109 77.5 187t185.5 78
q84 0 136 -52v1l11 23q8 14 15 14h72q-45 42 -105 66.5t-122 24.5q-83 0 -162 -40t-132 -118.5t-53 -175.5q0 -87 39.5 -166t119.5 -131.5t182 -52.5q62 0 120 20q15 5 21 -9zM723 134q0 -65 25 -65q28 0 47.5 66.5t19.5 128.5q0 59 -23 119t-69 107v-356zM561 295
q0 20 -25.5 38t-57.5 18q-39 0 -64.5 -27.5t-25.5 -66.5q0 -40 25.5 -67.5t64.5 -27.5q32 0 57.5 18.5t25.5 38.5v76z" />
    <glyph glyph-name="A" unicode="A" horiz-adv-x="713" 
d="M692 13q2 -5 -0.5 -9t-8.5 -4h-168q-16 0 -21 13l-18 48h-239l-18 -48q-7 -13 -21 -13h-168q-6 0 -8.5 4t-0.5 9l241 664q6 13 21 13h147q14 0 21 -13zM301 238h111l-56 154z" />
    <glyph glyph-name="B" unicode="B" horiz-adv-x="672" 
d="M411 690q81 0 138.5 -57t57.5 -138t-59 -140q84 -59 84 -160q0 -81 -57.5 -138t-138.5 -57h-342q-6 0 -10 4.5t-4 9.5v661q0 6 4 10.5t10 4.5h317zM286 495v-57h102q12 0 20.5 8.5t8.5 19.5q0 12 -8.5 20.5t-20.5 8.5h-102zM411 195q14 0 24 9.5t10 23.5t-10 24t-24 10
h-125v-67h125z" />
    <glyph glyph-name="C" unicode="C" horiz-adv-x="705" 
d="M399 706q95 0 216 -42q14 -5 9 -18l-63 -164q-5 -12 -19 -8q-88 26 -143 26q-63 0 -107.5 -45t-45.5 -109q1 -64 45.5 -109t107.5 -45q55 0 143 26q14 4 19 -8q60 -155 63 -164q5 -13 -9 -18q-121 -42 -216 -42q-149 0 -254 105.5t-105 254.5q0 152 106.5 256t252.5 104z
" />
    <glyph glyph-name="D" unicode="D" horiz-adv-x="730" 
d="M344 690q143 0 244.5 -101.5t101.5 -244.5q0 -142 -101.5 -243t-244.5 -101h-250q-5 0 -9.5 4.5t-4.5 10.5v660q0 6 4.5 10.5t9.5 4.5h250zM344 206q58 0 98.5 41t40.5 97q0 58 -40.5 99t-98.5 41h-58v-278h58z" />
    <glyph glyph-name="E" unicode="E" horiz-adv-x="647" 
d="M552 206q15 0 15 -14v-177q0 -5 -4.5 -10t-10.5 -5h-458q-5 0 -9.5 5t-4.5 10v661q0 5 4.5 9.5t9.5 4.5h446q7 0 11.5 -4.5t4.5 -9.5v-177q0 -15 -16 -15h-254v-51h177q15 0 13 -14l-18 -148q-2 -14 -17 -14h-155v-51h266z" />
    <glyph glyph-name="F" unicode="F" horiz-adv-x="595" 
d="M540 690q15 0 15 -14v-177q0 -15 -15 -15h-254v-79h177q15 0 13 -14l-18 -148q-2 -14 -17 -14h-155v-215q0 -5 -4.5 -9.5t-10.5 -4.5h-177q-6 0 -10 4.5t-4 10.5v661q0 5 4 9.5t10 4.5h446z" />
    <glyph glyph-name="G" unicode="G" horiz-adv-x="753" 
d="M658 430q6 0 10.5 -4.5t4.5 -9.5v-350q0 -18 -17 -24q-145 -56 -257 -56q-149 0 -254 105.5t-105 254.5q0 151 105.5 255.5t253.5 104.5q95 0 216 -42q14 -5 9 -18l-63 -164q-5 -12 -19 -8q-91 26 -143 26q-63 0 -108 -45t-45 -109t45 -109t108 -45q28 0 79 11v51h-71
q-14 0 -16 11l-18 151q0 14 12 14h273z" />
    <glyph glyph-name="H" unicode="H" horiz-adv-x="760" 
d="M665 690q15 0 15 -15v-661q0 -14 -15 -14h-177q-6 0 -10 4.5t-4 9.5v243h-188v-243q0 -14 -15 -14h-177q-5 0 -9.5 4.5t-4.5 9.5v661q0 6 4.5 10.5t9.5 4.5h177q15 0 15 -15v-242h188v242q0 15 14 15h177z" />
    <glyph glyph-name="I" unicode="I" horiz-adv-x="366" 
d="M271 0q15 0 15 14v661q0 15 -15 15h-177q-5 0 -9.5 -4.5t-4.5 -10.5v-661q0 -5 4.5 -9.5t9.5 -4.5h177z" />
    <glyph glyph-name="J" unicode="J" horiz-adv-x="496" 
d="M408 690q7 0 12.5 -5t5.5 -12v-405q-2 -111 -89 -189.5t-210 -78.5h-67q-11 1 -15.5 6t-4.5 18l16 153q5 29 31 29h40q38 0 65 24.5t27 58.5v384q0 7 5 12t12 5h172z" />
    <glyph glyph-name="K" unicode="K" horiz-adv-x="694" 
d="M672 12q4 -5 1.5 -8.5t-8.5 -3.5h-211q-14 0 -21 12l-147 253v-251q0 -14 -15 -14h-177q-5 0 -9.5 4.5t-4.5 9.5v661q0 6 4.5 10.5t9.5 4.5h177q15 0 15 -15v-241l143 244q7 12 23 12h198q14 0 7 -12l-193 -310z" />
    <glyph glyph-name="L" unicode="L" horiz-adv-x="615" 
d="M542 206q13 0 13 -14l-20 -178q-2 -14 -16 -14h-424q-6 0 -10.5 4.5t-4.5 9.5v661q0 6 4.5 10.5t10.5 4.5h177q6 0 10.5 -4.5t4.5 -10.5v-469h255z" />
    <glyph glyph-name="M" unicode="M" horiz-adv-x="995" 
d="M497 294l201 376q11 20 34 20h169q14 0 14 -15v-661q0 -5 -4 -9.5t-10 -4.5h-177q-6 0 -10.5 4.5t-4.5 9.5v278l-146 -277q-7 -15 -25 -15h-81q-17 0 -25 15l-146 277v-278q0 -5 -4.5 -9.5t-10.5 -4.5h-177q-6 0 -10 4.5t-4 9.5v661q0 15 14 15h169q23 0 34 -20z" />
    <glyph glyph-name="N" unicode="N" horiz-adv-x="749" 
d="M294 677q-6 13 -23 13h-177q-14 0 -14 -15v-661q0 -5 4 -9.5t10 -4.5h177q15 0 15 14v290l170 -291q6 -13 21 -13h177q15 0 15 14v661q0 15 -15 15h-177q-5 0 -9.5 -4.5t-4.5 -10.5v-289z" />
    <glyph glyph-name="O" unicode="O" horiz-adv-x="800" 
d="M760 345q0 149 -105.5 254.5t-254.5 105.5t-254.5 -105.5t-105.5 -254.5t105.5 -254t254.5 -105t254.5 105t105.5 254zM548 345q0 -60 -43.5 -103.5t-104.5 -43.5q-60 0 -103.5 43.5t-43.5 103.5q0 61 43.5 104.5t103.5 43.5q61 0 104.5 -43.5t43.5 -104.5z" />
    <glyph glyph-name="P" unicode="P" horiz-adv-x="683" 
d="M374 690q112 0 190.5 -78.5t78.5 -190.5q0 -111 -78.5 -190t-190.5 -79h-87v-138q0 -5 -4.5 -9.5t-11.5 -4.5h-177q-5 0 -9.5 4.5t-4.5 9.5v661q0 6 4.5 10.5t9.5 4.5h280zM374 358q26 0 44.5 18.5t18.5 44.5t-18.5 44.5t-44.5 18.5h-87v-126h87z" />
    <glyph glyph-name="Q" unicode="Q" horiz-adv-x="800" 
d="M230 28q-86 46 -138 131t-52 186q0 149 105.5 254.5t254.5 105.5t254.5 -105.5t105.5 -254.5q0 -96 -47 -177.5t-126 -129.5l30 -18q13 -6 6 -20l-70 -130q-8 -13 -20 -6zM400 499q-64 0 -108.5 -45t-44.5 -109t44.5 -109t108.5 -45t109 45t45 109t-45 109t-109 45z" />
    <glyph glyph-name="R" unicode="R" horiz-adv-x="680" 
d="M364 690q106 0 181 -75t75 -181q0 -121 -93 -198l81 -220q5 -16 -11 -16h-183q-18 0 -23 16l-53 160h-51v-162q0 -5 -4.5 -9.5t-11.5 -4.5h-176q-6 0 -10.5 4.5t-4.5 9.5v661q0 6 4.5 10.5t10.5 4.5h269zM287 484v-101h77q21 0 35.5 15t14.5 36q0 20 -14.5 35t-35.5 15
h-77z" />
    <glyph glyph-name="S" unicode="S" horiz-adv-x="666" 
d="M54 55q-2 -5 1 -10t7 -6q145 -53 262 -53q131 0 211.5 67.5t80.5 168.5q0 94 -73.5 160t-215.5 71q-68 2 -68 28q0 29 63 29q52 0 148 -26q14 -4 19 8q6 15 57 153q5 14 -8 19q-120 41 -218 41q-116 0 -193 -65t-77 -160q0 -94 74.5 -156.5t191.5 -64.5q26 -1 41 -2.5
t30 -9.5t15 -23q0 -37 -77 -37q-68 0 -191 38q-5 2 -11 -0.5t-7 -7.5z" />
    <glyph glyph-name="T" unicode="T" horiz-adv-x="646" 
d="M592 690q7 0 11 -4.5t3 -9.5l-19 -178q-2 -14 -16 -14h-145v-470q0 -5 -4 -9.5t-10 -4.5h-177q-6 0 -10.5 4.5t-4.5 9.5v470h-166q-5 0 -9.5 4t-4.5 10v177q0 6 4.5 10.5t9.5 4.5h538z" />
    <glyph glyph-name="U" unicode="U" horiz-adv-x="737" 
d="M667 254q-1 -112 -88.5 -190t-210.5 -78t-209.5 78t-88.5 190v419q0 7 5 12t12 5h172q7 0 12 -5t5 -12v-416q0 -34 27 -59t65 -25t65.5 24.5t27.5 58.5v417q0 7 5 12t12 5h172q7 0 12 -5t5 -12v-419z" />
    <glyph glyph-name="V" unicode="V" horiz-adv-x="686" 
d="M463 690q-14 0 -18 -14l-102 -356l-102 356q-6 14 -19 14h-191q-6 0 -9 -4.5t-1 -9.5l208 -662q4 -14 18 -14h191q14 0 20 14l207 662q4 14 -11 14h-191z" />
    <glyph glyph-name="W" unicode="W" horiz-adv-x="975" 
d="M943 690q7 0 10.5 -5t1.5 -12l-192 -657q-5 -16 -22 -16h-160q-18 0 -23 16l-70 241l-70 -241q-5 -16 -23 -16h-160q-17 0 -22 16l-192 657q-2 7 1.5 12t10.5 5h183q17 0 23 -17l86 -287l82 287q4 17 22 17h118q18 0 22 -17l81 -287l87 287q6 17 23 17h183z" />
    <glyph glyph-name="X" unicode="X" horiz-adv-x="613" 
d="M456 345l136 -329q3 -7 0 -11.5t-10 -4.5h-193q-18 0 -23 16l-59 162l-59 -162q-5 -16 -23 -16h-193q-16 0 -11 16l136 329l-136 329q-5 16 11 16h192q18 0 23 -16l60 -163l59 163q7 16 24 16h192q7 0 10 -4.5t0 -11.5z" />
    <glyph glyph-name="Y" unicode="Y" horiz-adv-x="659" 
d="M627 690q8 0 11 -4.5t0 -11.5l-205 -453v-207q0 -5 -4.5 -9.5t-11.5 -4.5h-176q-6 0 -10.5 4.5t-4.5 9.5v207l-205 453q-5 16 11 16h192q18 0 23 -16l82 -213l82 213q7 16 23 16h193z" />
    <glyph glyph-name="Z" unicode="Z" horiz-adv-x="720" 
d="M640 527q0 -15 -10 -27l-255 -294h250q15 0 15 -14v-178q0 -14 -15 -14h-531q-5 0 -9.5 4.5t-4.5 9.5v112q0 15 10 25l293 333h-266q-5 0 -9.5 4.5t-4.5 10.5v176q0 6 4.5 10.5t9.5 4.5h508q15 0 15 -15v-148z" />
    <glyph glyph-name="underscore" unicode="_" horiz-adv-x="508" 
d="M468 15q0 -15 -15 -15h-399q-14 0 -14 15v62q0 6 4.5 10t9.5 4h399q15 0 15 -14v-62z" />
    <glyph glyph-name="grave" unicode="`" 
d="M420 651q12 -9 4 -22l-19 -41q-3 -7 -9.5 -10.5t-11.5 -0.5l-195 80q-15 6 -8 20l39 73q3 7 9.5 9t10.5 -2z" />
    <glyph glyph-name="a" unicode="a" horiz-adv-x="685" 
d="M474 40q-55 -56 -144 -56q-120 0 -205 85t-85 205t85 205t204 85q92 0 148 -56v1l12 25q7 15 16 15h84q6 0 10.5 -4.5t4.5 -10.5v-520q0 -6 -4.5 -10.5t-10.5 -4.5h-97q-6 0 -11 4.5t-5 10.5zM427 316q0 21 -28 41t-63 20q-43 0 -71 -30t-28 -73t28.5 -73t70.5 -30
q35 0 63 20t28 42v83z" />
    <glyph glyph-name="b" unicode="b" horiz-adv-x="681" 
d="M95 0q-6 0 -10.5 4.5t-4.5 9.5v697q0 5 4.5 9.5t10.5 4.5h159q6 0 10.5 -4.5t4.5 -9.5v-164q35 17 83 17q118 0 203.5 -83.5t85.5 -206.5q0 -120 -84.5 -205t-204.5 -85q-92 0 -149 56l-2 -25q0 -15 -16 -15h-90zM257 233q0 -22 28 -42t63 -20q42 0 70.5 30t28.5 73
t-28 73t-71 30q-35 0 -63 -20t-28 -41v-83z" />
    <glyph glyph-name="c" unicode="c" horiz-adv-x="594" 
d="M490 204q60 -149 63 -158q5 -13 -9 -18q-121 -42 -216 -42q-119 0 -203.5 84.5t-84.5 204.5q0 119 84.5 204t203.5 85q95 0 216 -42q14 -5 9 -18l-63 -158q-2 -5 -7.5 -7.5t-11.5 -1.5q-80 26 -143 26q-36 0 -62 -26t-26 -62q0 -37 26 -62.5t62 -25.5q55 0 143 26
q6 1 11.5 -1.5t7.5 -7.5z" />
    <glyph glyph-name="d" unicode="d" horiz-adv-x="681" 
d="M586 725q6 0 10.5 -4.5t4.5 -9.5v-697q0 -5 -4.5 -9.5t-10.5 -4.5h-90q-16 0 -16 15l-2 25q-57 -56 -149 -56q-120 0 -204.5 85t-84.5 205q0 123 85.5 206.5t203.5 83.5q48 0 83 -17v164q0 5 4.5 9.5t10.5 4.5h159zM412 312q-5 22 -28.5 40.5t-58.5 18.5q-38 0 -65 -28.5
t-27 -68.5t27 -68t65 -28q35 0 58.5 18t28.5 40v76z" />
    <glyph glyph-name="e" unicode="e" horiz-adv-x="700" 
d="M474 462q0 17 12.5 29t29.5 12t29.5 -12t12.5 -29v-61q0 -3 -3 -3h-18q-3 0 -3 3v20l-36 -8v-12q0 -3 -3 -3h-18q-3 0 -3 3v61zM305 458q3 0 3 -3v-46v-1l-1 -2q-15 -9 -37 -9t-37.5 15t-15.5 37t15.5 37.5t37.5 15.5q20 0 36 -13q2 -3 0 -4l-11 -13q-2 -2 -4 0
q-8 7 -19 7q-12 0 -20.5 -8.5t-8.5 -21.5q0 -12 8.5 -20.5t20.5 -8.5q6 0 13 3v9l-10 -2q-3 0 -3 3v15q0 3 3 3zM87 501q13 0 22.5 -9.5t9.5 -22.5q0 -20 -21 -29l21 -38q2 -4 -3 -4h-20l-2 1l-17 35l-14 -4v-29q0 -3 -2 -3h-18q-3 0 -3 3v97q0 3 3 3h44zM202 501q3 0 3 -3
v-16q0 -3 -3 -3h-40v-18h17q4 0 4 -3v-17q0 -3 -4 -3h-17v-18h40q3 0 3 -3v-16q0 -3 -3 -3h-60q-3 0 -3 3v97q0 3 3 3h60zM407 501q3 0 3 -3v-60q0 -17 -12.5 -29t-29.5 -12t-29.5 12t-12.5 29v60q0 3 3 3h18q3 0 3 -3v-59q0 -8 5 -13.5t13 -5.5q19 0 19 19v59q0 3 2 3h18z
M659 402q2 -4 -2 -4h-20l-2 1l-18 35l-13 -4v-29q0 -3 -3 -3h-17q-3 0 -3 3v97q0 3 3 3h43q14 0 23.5 -9.5t9.5 -22.5q0 -19 -22 -29zM566 374q3 0 3 -4v-189q0 -3 -3 -3h-174q-3 0 -3 3v143q0 3 3 3h17q3 0 3 -3v-124h135v152h-115q-3 0 -3 2v144q0 2 3 2h17q3 0 3 -2v-124
h114zM63 480v-30l22 7q11 2 11 12q0 11 -11 11h-22zM626 457q11 4 11 12q0 11 -11 11h-22v-30zM498 434l36 9v18q0 7 -5 12.5t-13 5.5q-18 0 -18 -18v-27zM409 374q3 0 3 -4v-15q0 -3 -3 -3h-256v-152h215q2 0 2 -3v-127h36q3 0 3 -3v-17q0 -2 -3 -2h-56q-3 0 -3 2v128h-213
q-3 0 -3 3v189q0 3 3 3q0 1 1 1h274zM320 329q-22 0 -37 -15.5t-15 -37.5t15 -37.5t37 -15.5t37.5 15.5t15.5 37.5t-15.5 37.5t-37.5 15.5zM225 327q13 0 22.5 -9.5t9.5 -22.5q0 -12 -8 -20q7 -9 7 -19q0 -13 -9.5 -22.5t-22.5 -9.5h-43q-3 0 -3 3v97q0 3 3 3h44zM435 327
q-3 0 -3 -3v-97q0 -3 3 -3h36q21 0 36 15t15 37q0 21 -15 36t-36 15h-36zM223 283q11 2 11 12q0 11 -11 11h-22v-30zM469 306q13 0 21 -8.5t8 -21.5t-8 -21.5t-21 -8.5h-14v60h14zM320 246q-12 0 -20.5 9t-8.5 21t8.5 20.5t20.5 8.5q13 0 21.5 -8.5t8.5 -20.5t-8.5 -21
t-21.5 -9zM222 245q11 0 11 11q0 5 -3 8l-29 -8v-11h21zM564 137q2 2 -1 4q-16 14 -36 14q-22 0 -37.5 -16t-15.5 -39q0 -22 15.5 -38t37.5 -16q21 0 37 15q2 2 0 4l-12 12q-1 1 -4 1q-8 -8 -20 -8q-13 0 -21 9t-8 22t8 22t21 9q12 0 20 -8q2 -2 4 0zM189 132v-82q0 -2 2 -2
h18q3 0 3 2v82h21q3 0 3 3v16q0 3 -3 3h-65q-3 0 -3 -3v-16q0 -3 3 -3h21zM134 153q-3 0 -3 -3v-100q0 -3 3 -3h18q2 0 2 3v100q0 3 -2 3h-18zM242 112q0 17 12.5 29t29.5 12t29.5 -12t12.5 -29v-62q0 -2 -3 -2h-18q-3 0 -3 2v22l-36 -9v-13q0 -2 -3 -2h-18q-3 0 -3 2v62z
M433 153q-3 0 -3 -2v-101q0 -2 3 -2h18q2 0 2 2v101q0 2 -2 2h-18zM266 85l36 8v18q0 19 -18 19q-7 0 -12.5 -5.5t-5.5 -13.5v-26z" />
    <glyph glyph-name="f" unicode="f" horiz-adv-x="477" 
d="M422 549q15 0 15 -14l-11 -97q-2 -15 -15 -15h-104v-408q0 -6 -4.5 -10.5t-10.5 -4.5h-164q-6 0 -10.5 4.5t-4.5 10.5v408h-79q-14 0 -14 15v97q0 6 4.5 10t9.5 4h82q10 82 61.5 134t132.5 52h97q15 0 15 -16v-102q-3 -13 -12 -13h-51q-23 0 -37.5 -16t-14.5 -39h115z
" />
    <glyph glyph-name="g" unicode="g" horiz-adv-x="686" 
d="M606 69q0 -127 -72 -192t-185 -65q-67 0 -158 27q-18 5 -11 22l37 98q5 13 19 9q81 -19 110 -19q35 0 58 21.5t23 51.5v16q-23 -53 -107 -53q-109 0 -194.5 84.5t-85.5 206.5q0 120 84.5 204.5t208.5 84.5q88 0 145 -56l13 25q7 15 16 15h84q15 0 15 -15v-465zM427 316
q0 21 -28 41t-63 20q-43 0 -71 -30t-28 -73t28.5 -73t70.5 -30q35 0 63 20t28 42v83z" />
    <glyph glyph-name="h" unicode="h" horiz-adv-x="712" 
d="M95 725q-6 0 -10.5 -4.5t-4.5 -9.5v-697q0 -6 5.5 -10t9.5 -4h160q6 0 10.5 4.5t4.5 9.5v299q0 20 25.5 39t61.5 19q38 0 65 -28t27 -68v-261q0 -5 4.5 -9.5t10.5 -4.5h163q6 0 10.5 4.5t4.5 9.5v261q0 125 -77 207t-212 82q-46 0 -83 -16v163q0 5 -4.5 9.5t-10.5 4.5
h-160z" />
    <glyph glyph-name="i" unicode="i" horiz-adv-x="352" 
d="M176 580q51 0 73.5 21.5t22.5 50.5q0 30 -22.5 51.5t-73.5 21.5t-73.5 -22t-22.5 -51t23 -50.5t73 -21.5zM257 0q15 0 15 14v520q0 15 -15 15h-163q-14 0 -14 -15v-520q0 -5 4 -9.5t10 -4.5h163z" />
    <glyph glyph-name="j" unicode="j" horiz-adv-x="367" 
d="M191 580q51 0 73.5 21.5t22.5 50.5q0 30 -22.5 51.5t-73.5 21.5t-73.5 -22t-22.5 -51t23 -50.5t73 -21.5zM93 534q0 6 4.5 10.5t10.5 4.5h164q6 0 10.5 -4.5t4.5 -10.5v-496q0 -97 -53 -161.5t-145 -64.5h-96q-15 0 -16 16v102q3 13 12 13h51q24 0 38.5 16t14.5 39v536z
" />
    <glyph glyph-name="k" unicode="k" horiz-adv-x="672" 
d="M274 210l115 -198q7 -12 21 -12h213q6 0 8.5 3.5t-1.5 8.5l-176 301l143 224q7 12 -7 12h-200q-16 0 -23 -12l-93 -158v332q0 5 -4.5 9.5t-10.5 4.5h-164q-6 0 -10.5 -4.5t-4.5 -9.5v-696q0 -6 4.5 -10.5t10.5 -4.5h164q6 0 10.5 4.5t4.5 10.5v195z" />
    <glyph glyph-name="l" unicode="l" horiz-adv-x="354" 
d="M95 725q-6 0 -10.5 -4.5t-4.5 -9.5v-696q0 -6 4.5 -10.5t10.5 -4.5h164q6 0 10.5 4.5t4.5 10.5v696q0 5 -4.5 9.5t-10.5 4.5h-164z" />
    <glyph glyph-name="m" unicode="m" horiz-adv-x="1085" 
d="M1005 275q0 123 -75.5 206t-213.5 83q-104 0 -160 -77q-80 77 -194 77q-98 0 -154 -55l-12 25q-8 15 -16 15h-85q-6 0 -10.5 -4.5t-4.5 -10.5v-519q0 -6 5 -10.5t10 -4.5h163q6 0 10.5 4.5t4.5 9.5v299q0 21 25.5 39.5t59.5 18.5q36 0 62 -28t26 -68v-261q0 -5 4.5 -9.5
t10.5 -4.5h163q6 0 10.5 4.5t4.5 9.5v299q0 20 25.5 39t59.5 19q36 0 62 -28t26 -68v-261q0 -5 4.5 -9.5t10.5 -4.5h163q6 0 10.5 4.5t4.5 9.5v261z" />
    <glyph glyph-name="n" unicode="n" horiz-adv-x="725" 
d="M208 509q56 55 179 55q134 0 196 -81t62 -208v-261q0 -5 -4.5 -9.5t-10.5 -4.5h-165q-6 0 -10.5 4.5t-4.5 9.5v261q0 96 -84 96q-33 0 -60.5 -19t-32.5 -39v-299q0 -5 -4.5 -9.5t-10.5 -4.5h-163q-5 0 -10 4.5t-5 10.5v519q0 6 4.5 10.5t10.5 4.5h85q8 0 16 -15z" />
    <glyph glyph-name="o" unicode="o" horiz-adv-x="659" 
d="M329 565q120 0 205 -85t85 -205t-85 -204.5t-205 -84.5t-204.5 84.5t-84.5 204.5t84.5 205t204.5 85zM329 372q-39 0 -67.5 -28.5t-28.5 -68.5q0 -39 28.5 -67.5t67.5 -28.5q40 0 68.5 28.5t28.5 67.5q0 40 -28.5 68.5t-68.5 28.5z" />
    <glyph glyph-name="p" unicode="p" horiz-adv-x="686" 
d="M208 509q57 56 145 56q124 0 208.5 -84.5t84.5 -205.5q0 -123 -85.5 -206.5t-203.5 -83.5q-48 0 -83 17v-164q0 -5 -4.5 -9.5t-10.5 -4.5h-164q-6 0 -10.5 4.5t-4.5 9.5v696q0 6 4.5 10.5t10.5 4.5h84q9 0 16 -15zM256 233q0 -22 28 -42t63 -20q42 0 70.5 30t28.5 73
t-28 73t-71 30q-35 0 -63 -20t-28 -41v-83z" />
    <glyph glyph-name="q" unicode="q" horiz-adv-x="686" 
d="M412 2q-35 -17 -83 -17q-118 0 -203.5 83.5t-85.5 206.5q0 121 84.5 205.5t208.5 84.5q88 0 145 -56l13 25q7 15 16 15h84q6 0 10.5 -4.5t4.5 -10.5v-696q0 -5 -4.5 -9.5t-10.5 -4.5h-164q-6 0 -10.5 4.5t-4.5 9.5v164zM427 316q0 21 -28 41t-63 20q-43 0 -71 -30
t-28 -73t28.5 -73t70.5 -30q35 0 63 20t28 42v83z" />
    <glyph glyph-name="r" unicode="r" horiz-adv-x="526" 
d="M269 313q0 20 25.5 39t59.5 19q32 0 58 -20q5 -4 9 -1.5t6 7.5l77 152q5 10 -9 18q-68 38 -147 38q-88 0 -145 -56l-13 25q-8 15 -16 15h-79q-6 0 -10.5 -4.5t-4.5 -10.5v-520q0 -5 4.5 -9.5t10.5 -4.5h159q6 0 10.5 4.5t4.5 9.5v299z" />
    <glyph glyph-name="s" unicode="s" horiz-adv-x="536" 
d="M262 361q35 -4 59.5 -8.5t60.5 -16.5t58.5 -30t39 -49.5t16.5 -73.5q0 -88 -63.5 -142.5t-167.5 -54.5q-94 0 -215 42q-14 5 -9 19l48 131q6 15 20 9q92 -35 152 -35q52 0 52 25q0 5 -2 9t-6.5 6.5t-9 4t-11 2.5t-10.5 1t-11 0.5t-9 0.5q-95 3 -154.5 53.5t-59.5 127.5
q0 78 62 130t161 52q85 0 191 -37q14 -5 9 -19l-49 -129q-7 -13 -20 -9q-75 28 -134 28q-15 0 -23 -6.5t-8 -14.5q0 -12 33 -16z" />
    <glyph glyph-name="t" unicode="t" horiz-adv-x="477" 
d="M426 438q-2 -15 -15 -15h-104v-237q0 -23 14.5 -39t37.5 -16h51q9 0 12 -13v-102q0 -16 -15 -16h-97q-92 0 -144.5 64.5t-52.5 161.5v197h-79q-5 0 -9.5 4t-4.5 10v97q0 15 14 15h79v126q0 6 4.5 10.5t10.5 4.5h164q6 0 10.5 -4.5t4.5 -10.5v-126h115q15 0 15 -14z" />
    <glyph glyph-name="u" unicode="u" horiz-adv-x="701" 
d="M606 550q5 0 10 -4.5t5 -10.5v-519q0 -6 -4.5 -10.5t-10.5 -4.5h-97q-6 0 -11 4.5t-5 10.5l-2 26q-55 -56 -144 -56q-131 0 -204 77.5t-73 211.5v261q0 5 4.5 9.5t10.5 4.5h163q6 0 10.5 -4.5t4.5 -9.5v-261q0 -96 84 -96q29 0 53 19t28 39v299q0 5 4.5 9.5t10.5 4.5h163
z" />
    <glyph glyph-name="v" unicode="v" horiz-adv-x="625" 
d="M426 549q-13 0 -18 -14l-96 -282l-96 282q-5 14 -19 14h-166q-6 0 -9 -4.5t-1 -9.5l178 -521q4 -14 18 -14h190q14 0 20 14l177 521q4 14 -11 14h-167z" />
    <glyph glyph-name="w" unicode="w" horiz-adv-x="903" 
d="M520 535q-5 14 -18 14h-101q-13 0 -18 -14l-96 -266l-80 266q-3 14 -19 14h-157q-6 0 -9 -4.5t-1 -9.5l158 -521q4 -14 18 -14h162q14 0 20 14l72 201l73 -201q6 -14 20 -14h161q14 0 18 14l159 521q2 5 -1 9.5t-9 4.5h-156q-16 0 -19 -14l-81 -266z" />
    <glyph glyph-name="x" unicode="x" horiz-adv-x="700" 
d="M474 462q0 17 12.5 29t29.5 12t29.5 -12t12.5 -29v-61q0 -3 -3 -3h-18q-3 0 -3 3v20l-36 -8v-12q0 -3 -3 -3h-18q-3 0 -3 3v61zM305 458q3 0 3 -3v-46v-1l-1 -2q-15 -9 -37 -9t-37.5 15t-15.5 37t15.5 37.5t37.5 15.5q20 0 36 -13q2 -3 0 -4l-11 -13q-2 -2 -4 0
q-8 7 -19 7q-12 0 -20.5 -8.5t-8.5 -21.5q0 -12 8.5 -20.5t20.5 -8.5q6 0 13 3v9l-10 -2q-3 0 -3 3v15q0 3 3 3zM87 501q13 0 22.5 -9.5t9.5 -22.5q0 -20 -21 -29l21 -38q2 -4 -3 -4h-20l-2 1l-17 35l-14 -4v-29q0 -3 -2 -3h-18q-3 0 -3 3v97q0 3 3 3h44zM202 501q3 0 3 -3
v-16q0 -3 -3 -3h-40v-18h17q4 0 4 -3v-17q0 -3 -4 -3h-17v-18h40q3 0 3 -3v-16q0 -3 -3 -3h-60q-3 0 -3 3v97q0 3 3 3h60zM407 501q3 0 3 -3v-60q0 -17 -12.5 -29t-29.5 -12t-29.5 12t-12.5 29v60q0 3 3 3h18q3 0 3 -3v-59q0 -8 5 -13.5t13 -5.5q19 0 19 19v59q0 3 2 3h18z
M659 402q2 -4 -2 -4h-20l-2 1l-18 35l-13 -4v-29q0 -3 -3 -3h-17q-3 0 -3 3v97q0 3 3 3h43q14 0 23.5 -9.5t9.5 -22.5q0 -19 -22 -29zM566 374q3 0 3 -4v-189q0 -3 -3 -3h-174q-3 0 -3 3v143q0 3 3 3h17q3 0 3 -3v-124h135v152h-115q-3 0 -3 2v144q0 2 3 2h17q3 0 3 -2v-124
h114zM63 480v-30l22 7q11 2 11 12q0 11 -11 11h-22zM626 457q11 4 11 12q0 11 -11 11h-22v-30zM498 434l36 9v18q0 7 -5 12.5t-13 5.5q-18 0 -18 -18v-27zM409 374q3 0 3 -4v-15q0 -3 -3 -3h-256v-152h215q2 0 2 -3v-127h36q3 0 3 -3v-17q0 -2 -3 -2h-56q-3 0 -3 2v128h-213
q-3 0 -3 3v189q0 3 3 3q0 1 1 1h274zM320 329q-22 0 -37 -15.5t-15 -37.5t15 -37.5t37 -15.5t37.5 15.5t15.5 37.5t-15.5 37.5t-37.5 15.5zM225 327q13 0 22.5 -9.5t9.5 -22.5q0 -12 -8 -20q7 -9 7 -19q0 -13 -9.5 -22.5t-22.5 -9.5h-43q-3 0 -3 3v97q0 3 3 3h44zM435 327
q-3 0 -3 -3v-97q0 -3 3 -3h36q21 0 36 15t15 37q0 21 -15 36t-36 15h-36zM223 283q11 2 11 12q0 11 -11 11h-22v-30zM469 306q13 0 21 -8.5t8 -21.5t-8 -21.5t-21 -8.5h-14v60h14zM320 246q-12 0 -20.5 9t-8.5 21t8.5 20.5t20.5 8.5q13 0 21.5 -8.5t8.5 -20.5t-8.5 -21
t-21.5 -9zM222 245q11 0 11 11q0 5 -3 8l-29 -8v-11h21zM564 137q2 2 -1 4q-16 14 -36 14q-22 0 -37.5 -16t-15.5 -39q0 -22 15.5 -38t37.5 -16q21 0 37 15q2 2 0 4l-12 12q-1 1 -4 1q-8 -8 -20 -8q-13 0 -21 9t-8 22t8 22t21 9q12 0 20 -8q2 -2 4 0zM189 132v-82q0 -2 2 -2
h18q3 0 3 2v82h21q3 0 3 3v16q0 3 -3 3h-65q-3 0 -3 -3v-16q0 -3 3 -3h21zM134 153q-3 0 -3 -3v-100q0 -3 3 -3h18q2 0 2 3v100q0 3 -2 3h-18zM242 112q0 17 12.5 29t29.5 12t29.5 -12t12.5 -29v-62q0 -2 -3 -2h-18q-3 0 -3 2v22l-36 -9v-13q0 -2 -3 -2h-18q-3 0 -3 2v62z
M433 153q-3 0 -3 -2v-101q0 -2 3 -2h18q2 0 2 2v101q0 2 -2 2h-18zM266 85l36 8v18q0 19 -18 19q-7 0 -12.5 -5.5t-5.5 -13.5v-26z" />
    <glyph glyph-name="y" unicode="y" horiz-adv-x="601" 
d="M301 298l-81 237q-5 14 -19 14h-170q-6 0 -9 -4.5t-1 -9.5l178 -524l-3 -10q-8 -23 -28 -39t-43 -16h-51q-9 0 -12 -13v-103q0 -16 15 -16h60q92 0 167 64.5t108 161.5l169 494v1q4 14 -11 14h-170q-13 0 -18 -14z" />
    <glyph glyph-name="z" unicode="z" horiz-adv-x="618" 
d="M330 171h203q15 0 15 -14v-143q0 -14 -15 -14h-449q-5 0 -9.5 4.5t-4.5 9.5v102q0 10 7 17l235 245h-215q-5 0 -9.5 4.5t-4.5 10.5v141q0 6 4.5 10.5t9.5 4.5h424q15 0 15 -15v-138q0 -10 -7 -17z" />
    <glyph glyph-name="exclamdown" unicode="&#xa1;" horiz-adv-x="352" 
d="M176 558q51 0 73.5 21.5t22.5 50.5q0 30 -22.5 51.5t-73.5 21.5t-73.5 -22t-22.5 -51t23 -50.5t73 -21.5zM257 0q15 0 15 14l-14 498q0 15 -15 15h-133q-14 0 -14 -15l-16 -499q0 -5 4 -9.5t10 -3.5h163z" />
    <glyph glyph-name="cent" unicode="&#xa2;" 
d="M384 194v-1q46 9 83 20q14 4 19 -8l63 -158q5 -14 -9 -19q-72 -25 -156 -37v-38q0 -14 -15 -14h-62q-6 0 -10 4.5t-4 9.5v36q-109 11 -183 93t-74 193t74 193t183 93v52q0 15 14 15h62q15 0 15 -15v-54q81 -10 156 -36q14 -5 9 -19l-63 -158q-5 -12 -19 -8q-40 12 -83 19
v-163zM293 357v1q-25 -10 -41 -33t-16 -51q0 -27 16 -49.5t41 -32.5v165z" />
    <glyph glyph-name="sterling" unicode="&#xa3;" 
d="M490 158h-1q13 0 13 -14l-19 -130q-2 -14 -16 -14h-406q-5 0 -9.5 4.5t-4.5 9.5v115q0 13 14 15q38 3 64.5 24t26.5 63q0 15 -3 29h-86q-16 0 -16 15v39q0 14 16 14h56q-3 6 -18.5 32t-21.5 37.5t-15.5 34t-13.5 43.5t-4 43q0 84 61.5 136t177.5 52q68 0 158 -30
q10 -3 7 -13l-38 -115q-2 -9 -13 -7q-59 19 -100 19q-24 0 -38.5 -14.5t-17.5 -29.5l-3 -14q0 -15 7 -38t14.5 -39.5t24 -49.5t22.5 -47h97q16 0 16 -14v-39q0 -15 -16 -15h-69q22 -71 -9 -102h163z" />
    <glyph glyph-name="yen" unicode="&#xa5;" horiz-adv-x="659" 
d="M627 691q7 0 10.5 -5t0.5 -11l-162 -356h33q7 0 11.5 -4.5t4.5 -9.5v-39q0 -16 -16 -16h-64l-13 -28v-3h77q16 0 16 -14v-39q0 -15 -16 -15h-77v-137q0 -14 -15 -14h-177q-5 0 -9.5 4.5t-4.5 9.5v137h-80q-15 0 -15 15v39q0 14 15 14h80v3l-13 28h-67q-6 0 -10.5 4.5
t-4.5 11.5v39q0 5 4.5 9.5t10.5 4.5h36l-161 356q-3 6 0.5 11t10.5 5h192q17 0 23 -17l82 -213l82 213q6 17 23 17h193z" />
    <glyph glyph-name="dieresis" unicode="&#xa8;" 
d="M202 591q36 0 57.5 19t21.5 46q0 28 -21.5 47t-57.5 19q-35 0 -56.5 -19t-21.5 -47q0 -27 21.5 -46t56.5 -19zM391 591q36 0 57.5 19t21.5 46q0 28 -21.5 47t-57.5 19q-35 0 -56.5 -19t-21.5 -47q0 -27 21.5 -46t56.5 -19z" />
    <glyph glyph-name="copyright" unicode="&#xa9;" horiz-adv-x="780" 
d="M514 462q0 17 12.5 29t29.5 12t29.5 -12t12.5 -29v-61q0 -3 -3 -3h-18q-3 0 -3 3v20l-36 -8v-12q0 -3 -3 -3h-18q-3 0 -3 3v61zM345 458q3 0 3 -3v-46v-1l-1 -2q-15 -9 -37 -9t-37.5 15t-15.5 37t15.5 37.5t37.5 15.5q20 0 36 -13q2 -3 0 -4l-11 -13q-2 -2 -4 0
q-8 7 -19 7q-12 0 -20.5 -8.5t-8.5 -21.5q0 -12 8.5 -20.5t20.5 -8.5q6 0 13 3v9l-10 -2q-3 0 -3 3v15q0 3 3 3zM127 501q13 0 22.5 -9.5t9.5 -22.5q0 -20 -21 -29l21 -38q2 -4 -3 -4h-20l-2 1l-17 35l-14 -4v-29q0 -3 -2 -3h-18q-3 0 -3 3v97q0 3 3 3h44zM242 501q3 0 3 -3
v-16q0 -3 -3 -3h-40v-18h17q4 0 4 -3v-17q0 -3 -4 -3h-17v-18h40q3 0 3 -3v-16q0 -3 -3 -3h-60q-3 0 -3 3v97q0 3 3 3h60zM447 501q3 0 3 -3v-60q0 -17 -12.5 -29t-29.5 -12t-29.5 12t-12.5 29v60q0 3 3 3h18q3 0 3 -3v-59q0 -8 5 -13.5t13 -5.5q19 0 19 19v59q0 3 2 3h18z
M699 402q2 -4 -2 -4h-20l-2 1l-18 35l-13 -4v-29q0 -3 -3 -3h-17q-3 0 -3 3v97q0 3 3 3h43q14 0 23.5 -9.5t9.5 -22.5q0 -19 -22 -29zM606 374q3 0 3 -4v-189q0 -3 -3 -3h-174q-3 0 -3 3v143q0 3 3 3h17q3 0 3 -3v-124h135v152h-115q-3 0 -3 2v144q0 2 3 2h17q3 0 3 -2v-124
h114zM103 480v-30l22 7q11 2 11 12q0 11 -11 11h-22zM666 457q11 4 11 12q0 11 -11 11h-22v-30zM538 434l36 9v18q0 7 -5 12.5t-13 5.5q-18 0 -18 -18v-27zM449 374q3 0 3 -4v-15q0 -3 -3 -3h-256v-152h215q2 0 2 -3v-127h36q3 0 3 -3v-17q0 -2 -3 -2h-56q-3 0 -3 2v128
h-213q-3 0 -3 3v189q0 3 3 3q0 1 1 1h274zM360 329q-22 0 -37 -15.5t-15 -37.5t15 -37.5t37 -15.5t37.5 15.5t15.5 37.5t-15.5 37.5t-37.5 15.5zM265 327q13 0 22.5 -9.5t9.5 -22.5q0 -12 -8 -20q7 -9 7 -19q0 -13 -9.5 -22.5t-22.5 -9.5h-43q-3 0 -3 3v97q0 3 3 3h44z
M475 327q-3 0 -3 -3v-97q0 -3 3 -3h36q21 0 36 15t15 37q0 21 -15 36t-36 15h-36zM263 283q11 2 11 12q0 11 -11 11h-22v-30zM509 306q13 0 21 -8.5t8 -21.5t-8 -21.5t-21 -8.5h-14v60h14zM360 246q-12 0 -20.5 9t-8.5 21t8.5 20.5t20.5 8.5q13 0 21.5 -8.5t8.5 -20.5
t-8.5 -21t-21.5 -9zM262 245q11 0 11 11q0 5 -3 8l-29 -8v-11h21zM604 137q2 2 -1 4q-16 14 -36 14q-22 0 -37.5 -16t-15.5 -39q0 -22 15.5 -38t37.5 -16q21 0 37 15q2 2 0 4l-12 12q-1 1 -4 1q-8 -8 -20 -8q-13 0 -21 9t-8 22t8 22t21 9q12 0 20 -8q2 -2 4 0zM229 132v-82
q0 -2 2 -2h18q3 0 3 2v82h21q3 0 3 3v16q0 3 -3 3h-65q-3 0 -3 -3v-16q0 -3 3 -3h21zM174 153q-3 0 -3 -3v-100q0 -3 3 -3h18q2 0 2 3v100q0 3 -2 3h-18zM282 112q0 17 12.5 29t29.5 12t29.5 -12t12.5 -29v-62q0 -2 -3 -2h-18q-3 0 -3 2v22l-36 -9v-13q0 -2 -3 -2h-18
q-3 0 -3 2v62zM473 153q-3 0 -3 -2v-101q0 -2 3 -2h18q2 0 2 2v101q0 2 -2 2h-18zM306 85l36 8v18q0 19 -18 19q-7 0 -12.5 -5.5t-5.5 -13.5v-26z" />
    <glyph glyph-name="acute" unicode="&#xb4;" 
d="M168 629q-8 13 4 22l180 106q4 4 10.5 2t9.5 -9l39 -73q7 -14 -8 -20l-195 -80q-5 -3 -11.5 0.5t-9.5 10.5z" />
    <glyph glyph-name="cedilla" unicode="&#xb8;" 
d="M310 -119q3 5 6 2q6 -6 24 -15q9 -5 25.5 0.5t16.5 25.5q0 35 -48 35q-5 0 -5 5v92l43 -16v-43q22 -4 42.5 -23t20.5 -53q0 -46 -37.5 -64.5t-70.5 -6.5l-39 21q-6 3 -2 7z" />
    <glyph glyph-name="questiondown" unicode="&#xbf;" horiz-adv-x="465" 
d="M279 419q-50 0 -73 21.5t-23 50.5t22.5 51t73.5 22t73.5 -21.5t22.5 -51.5q0 -29 -22.5 -50.5t-73.5 -21.5zM362 331q0 -54 -20 -98t-44 -68t-44 -54t-20 -58q0 -25 13.5 -41.5t42.5 -16.5q44 0 103 19q11 2 13 -7q35 -109 38 -115q3 -10 -7 -13q-90 -30 -158 -30
q-116 0 -177.5 52t-61.5 139q0 43 16 79t38.5 61t45.5 47.5t39.5 49t17.5 54.5l2 45q0 12 14 12h133q14 0 16 -12v-45z" />
    <glyph glyph-name="Agrave" unicode="&#xc0;" horiz-adv-x="713" 
d="M474 796q12 -9 4 -22l-19 -41q-3 -7 -9.5 -10.5t-11.5 -0.5l-195 80q-15 6 -8 20l39 73q3 7 9.5 9t10.5 -2zM692 13q2 -5 -0.5 -9t-8.5 -4h-168q-16 0 -21 13l-18 48h-239l-18 -48q-7 -13 -21 -13h-168q-6 0 -8.5 4t-0.5 9l241 664q6 13 21 13h147q14 0 21 -13zM301 238
h111l-56 154z" />
    <glyph glyph-name="Aacute" unicode="&#xc1;" horiz-adv-x="713" 
d="M236 774q-8 13 4 22l180 106q4 4 10.5 2t9.5 -9l39 -73q7 -14 -8 -20l-195 -80q-5 -3 -11.5 0.5t-9.5 10.5zM692 13q2 -5 -0.5 -9t-8.5 -4h-168q-16 0 -21 13l-18 48h-239l-18 -48q-7 -13 -21 -13h-168q-6 0 -8.5 4t-0.5 9l241 664q6 13 21 13h147q14 0 21 -13zM301 238
h111l-56 154z" />
    <glyph glyph-name="Acircumflex" unicode="&#xc2;" horiz-adv-x="713" 
d="M194 774q-3 5 -0.5 11.5t7.5 8.5l142 82q14 7 27 0l142 -82q14 -6 8 -20l-18 -43q-6 -13 -19 -9l-126 43l-127 -43q-13 -4 -19 9zM692 13q2 -5 -0.5 -9t-8.5 -4h-168q-16 0 -21 13l-18 48h-239l-18 -48q-7 -13 -21 -13h-168q-6 0 -8.5 4t-0.5 9l241 664q6 13 21 13h147
q14 0 21 -13zM301 238h111l-56 154z" />
    <glyph glyph-name="Adieresis" unicode="&#xc4;" horiz-adv-x="713" 
d="M263 732q36 0 57.5 19t21.5 46q0 28 -21.5 47t-57.5 19q-35 0 -56.5 -19t-21.5 -47q0 -27 21.5 -46t56.5 -19zM452 732q36 0 57.5 19t21.5 46q0 28 -21.5 47t-57.5 19q-35 0 -56.5 -19t-21.5 -47q0 -27 21.5 -46t56.5 -19zM692 13q2 -5 -0.5 -9t-8.5 -4h-168
q-16 0 -21 13l-18 48h-239l-18 -48q-7 -13 -21 -13h-168q-6 0 -8.5 4t-0.5 9l241 664q6 13 21 13h147q14 0 21 -13zM301 238h111l-56 154z" />
    <glyph glyph-name="Aring" unicode="&#xc5;" horiz-adv-x="713" 
d="M692 13q2 -5 -0.5 -9t-8.5 -4h-168q-16 0 -21 13l-18 48h-239l-18 -48q-7 -13 -21 -13h-168q-6 0 -8.5 4t-0.5 9l241 664q6 13 21 13h55q-32 7 -53 32.5t-21 58.5q0 39 27.5 66.5t65.5 27.5t65.5 -27.5t27.5 -66.5q0 -33 -21 -58.5t-53 -32.5h54q14 0 21 -13zM320 780
q0 -14 10.5 -24.5t26.5 -10.5q15 0 26.5 10.5t11.5 24.5q0 15 -11.5 26t-26.5 11q-16 0 -26.5 -10.5t-10.5 -26.5zM412 238l-56 154l-55 -154h111z" />
    <glyph glyph-name="AE" unicode="&#xc6;" horiz-adv-x="949" 
d="M842 690q7 0 11.5 -4.5t4.5 -9.5v-177q0 -15 -16 -15h-254v-51h177q15 0 13 -14l-18 -148q-2 -14 -17 -14h-155v-51h266q15 0 15 -14v-177q0 -5 -4.5 -10t-10.5 -5h-458q-5 0 -9.5 5t-4.5 10v46h-145l-18 -48q-7 -13 -21 -13h-168q-6 0 -8.5 4t-0.5 9l241 664q6 13 21 13
h559zM381 462l-80 -224h80v224z" />
    <glyph glyph-name="Ccedilla" unicode="&#xc7;" horiz-adv-x="705" 
d="M333 -8q-126 23 -209.5 123t-83.5 231q0 152 106.5 256t252.5 104q95 0 216 -42q14 -5 9 -18l-63 -164q-5 -12 -19 -8q-88 26 -143 26q-63 0 -107.5 -45t-45.5 -109q1 -64 45.5 -109t107.5 -45q55 0 143 26q14 4 19 -8q60 -155 63 -164q5 -13 -9 -18q-121 -42 -216 -42
l-23 1v-20q22 -4 42.5 -23t20.5 -53q0 -46 -37.5 -64.5t-70.5 -6.5l-39 21q-6 3 -2 7l24 33q3 5 6 2q6 -6 24 -15q9 -5 25.5 0.5t16.5 25.5q0 35 -48 35q-5 0 -5 5v58z" />
    <glyph glyph-name="Egrave" unicode="&#xc8;" horiz-adv-x="647" 
d="M429 796q12 -9 4 -22l-19 -41q-3 -7 -9.5 -10.5t-11.5 -0.5l-195 80q-15 6 -8 20l39 73q3 7 9.5 9t10.5 -2zM552 206q15 0 15 -14v-177q0 -5 -4.5 -10t-10.5 -5h-458q-5 0 -9.5 5t-4.5 10v661q0 5 4.5 9.5t9.5 4.5h446q7 0 11.5 -4.5t4.5 -9.5v-177q0 -15 -16 -15h-254
v-51h177q15 0 13 -14l-18 -148q-2 -14 -17 -14h-155v-51h266z" />
    <glyph glyph-name="Eacute" unicode="&#xc9;" horiz-adv-x="647" 
d="M216 774q-8 13 4 22l180 106q4 4 10.5 2t9.5 -9l39 -73q7 -14 -8 -20l-195 -80q-5 -3 -11.5 0.5t-9.5 10.5zM552 206q15 0 15 -14v-177q0 -5 -4.5 -10t-10.5 -5h-458q-5 0 -9.5 5t-4.5 10v661q0 5 4.5 9.5t9.5 4.5h446q7 0 11.5 -4.5t4.5 -9.5v-177q0 -15 -16 -15h-254
v-51h177q15 0 13 -14l-18 -148q-2 -14 -17 -14h-155v-51h266z" />
    <glyph glyph-name="Ecircumflex" unicode="&#xca;" horiz-adv-x="647" 
d="M174 772q-3 5 -0.5 11.5t7.5 8.5l142 82q14 7 27 0l142 -82q14 -6 8 -20l-18 -43q-6 -13 -19 -9l-126 43l-127 -43q-13 -4 -19 9zM552 206q15 0 15 -14v-177q0 -5 -4.5 -10t-10.5 -5h-458q-5 0 -9.5 5t-4.5 10v661q0 5 4.5 9.5t9.5 4.5h446q7 0 11.5 -4.5t4.5 -9.5v-177
q0 -15 -16 -15h-254v-51h177q15 0 13 -14l-18 -148q-2 -14 -17 -14h-155v-51h266z" />
    <glyph glyph-name="Edieresis" unicode="&#xcb;" horiz-adv-x="647" 
d="M243 717q36 0 57.5 19t21.5 46q0 28 -21.5 47t-57.5 19q-35 0 -56.5 -19t-21.5 -47q0 -27 21.5 -46t56.5 -19zM432 717q36 0 57.5 19t21.5 46q0 28 -21.5 47t-57.5 19q-35 0 -56.5 -19t-21.5 -47q0 -27 21.5 -46t56.5 -19zM552 206q15 0 15 -14v-177q0 -5 -4.5 -10
t-10.5 -5h-458q-5 0 -9.5 5t-4.5 10v661q0 5 4.5 9.5t9.5 4.5h446q7 0 11.5 -4.5t4.5 -9.5v-177q0 -15 -16 -15h-254v-51h177q15 0 13 -14l-18 -148q-2 -14 -17 -14h-155v-51h266z" />
    <glyph glyph-name="Igrave" unicode="&#xcc;" horiz-adv-x="366" 
d="M277 796q12 -9 4 -22l-19 -41q-3 -7 -9.5 -10.5t-11.5 -0.5l-195 80q-15 6 -8 20l39 73q3 7 9.5 9t10.5 -2zM271 0q15 0 15 14v661q0 15 -15 15h-177q-5 0 -9.5 -4.5t-4.5 -10.5v-661q0 -5 4.5 -9.5t9.5 -4.5h177z" />
    <glyph glyph-name="Iacute" unicode="&#xcd;" horiz-adv-x="366" 
d="M84 774q-8 13 4 22l180 106q4 4 10.5 2t9.5 -9l39 -73q7 -14 -8 -20l-195 -80q-5 -3 -11.5 0.5t-9.5 10.5zM271 0q15 0 15 14v661q0 15 -15 15h-177q-5 0 -9.5 -4.5t-4.5 -10.5v-661q0 -5 4.5 -9.5t9.5 -4.5h177z" />
    <glyph glyph-name="Icircumflex" unicode="&#xce;" horiz-adv-x="366" 
d="M19 772q-3 5 -0.5 11.5t7.5 8.5l142 82q14 7 27 0l142 -82q14 -6 8 -20l-18 -43q-6 -13 -19 -9l-126 43l-127 -43q-13 -4 -19 9zM271 0q15 0 15 14v661q0 15 -15 15h-177q-5 0 -9.5 -4.5t-4.5 -10.5v-661q0 -5 4.5 -9.5t9.5 -4.5h177z" />
    <glyph glyph-name="Idieresis" unicode="&#xcf;" horiz-adv-x="366" 
d="M88 717q36 0 57.5 19t21.5 46q0 28 -21.5 47t-57.5 19q-35 0 -56.5 -19t-21.5 -47q0 -27 21.5 -46t56.5 -19zM277 717q36 0 57.5 19t21.5 46q0 28 -21.5 47t-57.5 19q-35 0 -56.5 -19t-21.5 -47q0 -27 21.5 -46t56.5 -19zM271 0q15 0 15 14v661q0 15 -15 15h-177
q-5 0 -9.5 -4.5t-4.5 -10.5v-661q0 -5 4.5 -9.5t9.5 -4.5h177z" />
    <glyph glyph-name="Eth" unicode="&#xd0;" horiz-adv-x="730" 
d="M344 690q143 0 244.5 -101.5t101.5 -244.5q0 -142 -101.5 -243t-244.5 -101h-250q-5 0 -9.5 4.5t-4.5 10.5v287h-34q-14 0 -14 15v62q0 6 4.5 10t9.5 4h34v282q0 6 4.5 10.5t9.5 4.5h250zM344 206q58 0 98.5 41t40.5 97q0 58 -40.5 99t-98.5 41h-58v-91h90q15 0 15 -14
v-62q0 -15 -15 -15h-90v-96h58z" />
    <glyph glyph-name="Ntilde" unicode="&#xd1;" horiz-adv-x="749" 
d="M272 750q6 -3 11 2q4 4 8 5q19 5 54 -8q85 -35 125 -20q29 11 59 41q7 7 -2 14l-60 48q-5 4 -10 0l-10 -7q-7 -3 -23.5 -0.5t-30.5 8.5q-85 35 -125 20q-17 -6 -37.5 -24t-29.5 -31q-6 -9 5 -14zM294 677q-6 13 -23 13h-177q-14 0 -14 -15v-661q0 -5 4 -9.5t10 -4.5h177
q15 0 15 14v290l170 -291q6 -13 21 -13h177q15 0 15 14v661q0 15 -15 15h-177q-5 0 -9.5 -4.5t-4.5 -10.5v-289z" />
    <glyph glyph-name="Ograve" unicode="&#xd2;" horiz-adv-x="800" 
d="M527 796q12 -9 4 -22l-19 -41q-3 -7 -9.5 -10.5t-11.5 -0.5l-195 80q-15 6 -8 20l39 73q3 7 9.5 9t10.5 -2zM760 345q0 149 -105.5 254.5t-254.5 105.5t-254.5 -105.5t-105.5 -254.5t105.5 -254t254.5 -105t254.5 105t105.5 254zM548 345q0 -60 -43.5 -103.5
t-104.5 -43.5q-60 0 -103.5 43.5t-43.5 103.5q0 61 43.5 104.5t103.5 43.5q61 0 104.5 -43.5t43.5 -104.5z" />
    <glyph glyph-name="Oacute" unicode="&#xd3;" horiz-adv-x="800" 
d="M260 774q-8 13 4 22l180 106q4 4 10.5 2t9.5 -9l39 -73q7 -14 -8 -20l-195 -80q-5 -3 -11.5 0.5t-9.5 10.5zM760 345q0 149 -105.5 254.5t-254.5 105.5t-254.5 -105.5t-105.5 -254.5t105.5 -254t254.5 -105t254.5 105t105.5 254zM548 345q0 -60 -43.5 -103.5
t-104.5 -43.5q-60 0 -103.5 43.5t-43.5 103.5q0 61 43.5 104.5t103.5 43.5q61 0 104.5 -43.5t43.5 -104.5z" />
    <glyph glyph-name="Ocircumflex" unicode="&#xd4;" horiz-adv-x="800" 
d="M242 772q-3 5 -0.5 11.5t7.5 8.5l142 82q14 7 27 0l142 -82q14 -6 8 -20l-18 -43q-6 -13 -19 -9l-126 43l-127 -43q-13 -4 -19 9zM760 345q0 149 -105.5 254.5t-254.5 105.5t-254.5 -105.5t-105.5 -254.5t105.5 -254t254.5 -105t254.5 105t105.5 254zM548 345
q0 -60 -43.5 -103.5t-104.5 -43.5q-60 0 -103.5 43.5t-43.5 103.5q0 61 43.5 104.5t103.5 43.5q61 0 104.5 -43.5t43.5 -104.5z" />
    <glyph glyph-name="Otilde" unicode="&#xd5;" horiz-adv-x="800" 
d="M306 750q6 -3 11 2q4 4 8 5q19 5 54 -8q85 -35 125 -20q29 11 59 41q7 7 -2 14l-60 48q-5 4 -10 0l-10 -7q-7 -3 -23.5 -0.5t-30.5 8.5q-85 35 -125 20q-17 -6 -37.5 -24t-29.5 -31q-6 -9 5 -14zM760 345q0 149 -105.5 254.5t-254.5 105.5t-254.5 -105.5t-105.5 -254.5
t105.5 -254t254.5 -105t254.5 105t105.5 254zM548 345q0 -60 -43.5 -103.5t-104.5 -43.5q-60 0 -103.5 43.5t-43.5 103.5q0 61 43.5 104.5t103.5 43.5q61 0 104.5 -43.5t43.5 -104.5z" />
    <glyph glyph-name="Odieresis" unicode="&#xd6;" horiz-adv-x="800" 
d="M314 717q36 0 57.5 19t21.5 46q0 28 -21.5 47t-57.5 19q-35 0 -56.5 -19t-21.5 -47q0 -27 21.5 -46t56.5 -19zM503 717q36 0 57.5 19t21.5 46q0 28 -21.5 47t-57.5 19q-35 0 -56.5 -19t-21.5 -47q0 -27 21.5 -46t56.5 -19zM760 345q0 149 -105.5 254.5t-254.5 105.5
t-254.5 -105.5t-105.5 -254.5t105.5 -254t254.5 -105t254.5 105t105.5 254zM548 345q0 -60 -43.5 -103.5t-104.5 -43.5q-60 0 -103.5 43.5t-43.5 103.5q0 61 43.5 104.5t103.5 43.5q61 0 104.5 -43.5t43.5 -104.5z" />
    <glyph glyph-name="Oslash" unicode="&#xd8;" horiz-adv-x="820" 
d="M694 565l1 -1q75 -97 75 -220q0 -149 -105.5 -254t-254.5 -105q-123 0 -220 75l-31 -31q-11 -11 -21 1l-44 43q-9 11 0 21l31 31q-75 97 -75 220q0 149 105.5 254.5t254.5 105.5q123 0 220 -75l25 25q10 12 21 1l44 -44q10 -10 0 -21zM482 481q-32 17 -71 17
q-63 0 -108 -45t-45 -109q0 -38 17 -70zM340 209v-1q32 -17 71 -17q64 0 109 45t45 108q0 40 -18 72z" />
    <glyph glyph-name="Ugrave" unicode="&#xd9;" horiz-adv-x="737" 
d="M489 796q12 -9 4 -22l-19 -41q-3 -7 -9.5 -10.5t-11.5 -0.5l-195 80q-15 6 -8 20l39 73q3 7 9.5 9t10.5 -2zM667 254q-1 -112 -88.5 -190t-210.5 -78t-209.5 78t-88.5 190v419q0 7 5 12t12 5h172q7 0 12 -5t5 -12v-416q0 -34 27 -59t65 -25t65.5 24.5t27.5 58.5v417
q0 7 5 12t12 5h172q7 0 12 -5t5 -12v-419z" />
    <glyph glyph-name="Uacute" unicode="&#xda;" horiz-adv-x="737" 
d="M274 774q-8 13 4 22l180 106q4 4 10.5 2t9.5 -9l39 -73q7 -14 -8 -20l-195 -80q-5 -3 -11.5 0.5t-9.5 10.5zM667 254q-1 -112 -88.5 -190t-210.5 -78t-209.5 78t-88.5 190v419q0 7 5 12t12 5h172q7 0 12 -5t5 -12v-416q0 -34 27 -59t65 -25t65.5 24.5t27.5 58.5v417
q0 7 5 12t12 5h172q7 0 12 -5t5 -12v-419z" />
    <glyph glyph-name="Ucircumflex" unicode="&#xdb;" horiz-adv-x="737" 
d="M227 772q-3 5 -0.5 11.5t7.5 8.5l142 82q14 7 27 0l142 -82q14 -6 8 -20l-18 -43q-6 -13 -19 -9l-126 43l-127 -43q-13 -4 -19 9zM667 254q-1 -112 -88.5 -190t-210.5 -78t-209.5 78t-88.5 190v419q0 7 5 12t12 5h172q7 0 12 -5t5 -12v-416q0 -34 27 -59t65 -25
t65.5 24.5t27.5 58.5v417q0 7 5 12t12 5h172q7 0 12 -5t5 -12v-419z" />
    <glyph glyph-name="Udieresis" unicode="&#xdc;" horiz-adv-x="737" 
d="M294 717q36 0 57.5 19t21.5 46q0 28 -21.5 47t-57.5 19q-35 0 -56.5 -19t-21.5 -47q0 -27 21.5 -46t56.5 -19zM483 717q36 0 57.5 19t21.5 46q0 28 -21.5 47t-57.5 19q-35 0 -56.5 -19t-21.5 -47q0 -27 21.5 -46t56.5 -19zM667 254q-1 -112 -88.5 -190t-210.5 -78
t-209.5 78t-88.5 190v419q0 7 5 12t12 5h172q7 0 12 -5t5 -12v-416q0 -34 27 -59t65 -25t65.5 24.5t27.5 58.5v417q0 7 5 12t12 5h172q7 0 12 -5t5 -12v-419z" />
    <glyph glyph-name="Yacute" unicode="&#xdd;" horiz-adv-x="659" 
d="M223 774q-8 13 4 22l180 106q4 4 10.5 2t9.5 -9l39 -73q7 -14 -8 -20l-195 -80q-5 -3 -11.5 0.5t-9.5 10.5zM627 690q8 0 11 -4.5t0 -11.5l-205 -453v-207q0 -5 -4.5 -9.5t-11.5 -4.5h-176q-6 0 -10.5 4.5t-4.5 9.5v207l-205 453q-5 16 11 16h192q18 0 23 -16l82 -213
l82 213q7 16 23 16h193z" />
    <glyph glyph-name="germandbls" unicode="&#xdf;" horiz-adv-x="664" 
d="M80 490q0 110 76 168t184 58t184 -58t76 -168q0 -64 -25 -108q49 -60 49 -149q0 -120 -83 -183.5t-201 -63.5q-10 0 -15 1q-16 0 -16 17v162q0 18 18 18q6 -1 18 -1q38 0 59 13t21 33q0 21 -20.5 33.5t-59.5 12.5h-19q-17 0 -17 17v145q0 17 17 17h19q33 0 51 11t18 28
t-18.5 28t-50.5 11t-50.5 -11t-18.5 -28v-476q0 -17 -17 -17h-162q-17 0 -17 17v473z" />
    <glyph glyph-name="agrave" unicode="&#xe0;" horiz-adv-x="685" 
d="M460 651q12 -9 4 -22l-19 -41q-3 -7 -9.5 -10.5t-11.5 -0.5l-195 80q-15 6 -8 20l39 73q3 7 9.5 9t10.5 -2zM474 40q-55 -56 -144 -56q-120 0 -205 85t-85 205t85 205t204 85q92 0 148 -56v1l12 25q7 15 16 15h84q6 0 10.5 -4.5t4.5 -10.5v-520q0 -6 -4.5 -10.5
t-10.5 -4.5h-97q-6 0 -11 4.5t-5 10.5zM427 316q0 21 -28 41t-63 20q-43 0 -71 -30t-28 -73t28.5 -73t70.5 -30q35 0 63 20t28 42v83z" />
    <glyph glyph-name="aacute" unicode="&#xe1;" horiz-adv-x="685" 
d="M222 629q-8 13 4 22l180 106q4 4 10.5 2t9.5 -9l39 -73q7 -14 -8 -20l-195 -80q-5 -3 -11.5 0.5t-9.5 10.5zM474 40q-55 -56 -144 -56q-120 0 -205 85t-85 205t85 205t204 85q92 0 148 -56v1l12 25q7 15 16 15h84q6 0 10.5 -4.5t4.5 -10.5v-520q0 -6 -4.5 -10.5
t-10.5 -4.5h-97q-6 0 -11 4.5t-5 10.5zM427 316q0 21 -28 41t-63 20q-43 0 -71 -30t-28 -73t28.5 -73t70.5 -30q35 0 63 20t28 42v83z" />
    <glyph glyph-name="acircumflex" unicode="&#xe2;" horiz-adv-x="685" 
d="M180 633q-3 5 -0.5 11.5t7.5 8.5l142 82q14 7 27 0l142 -82q14 -6 8 -20l-18 -43q-6 -13 -19 -9l-126 43l-127 -43q-13 -4 -19 9zM474 40q-55 -56 -144 -56q-120 0 -205 85t-85 205t85 205t204 85q92 0 148 -56v1l12 25q7 15 16 15h84q6 0 10.5 -4.5t4.5 -10.5v-520
q0 -6 -4.5 -10.5t-10.5 -4.5h-97q-6 0 -11 4.5t-5 10.5zM427 316q0 21 -28 41t-63 20q-43 0 -71 -30t-28 -73t28.5 -73t70.5 -30q35 0 63 20t28 42v83z" />
    <glyph glyph-name="adieresis" unicode="&#xe4;" horiz-adv-x="685" 
d="M240 591q36 0 57.5 19t21.5 46q0 28 -21.5 47t-57.5 19q-35 0 -56.5 -19t-21.5 -47q0 -27 21.5 -46t56.5 -19zM429 591q36 0 57.5 19t21.5 46q0 28 -21.5 47t-57.5 19q-35 0 -56.5 -19t-21.5 -47q0 -27 21.5 -46t56.5 -19zM474 40q-55 -56 -144 -56q-120 0 -205 85
t-85 205t85 205t204 85q92 0 148 -56v1l12 25q7 15 16 15h84q6 0 10.5 -4.5t4.5 -10.5v-520q0 -6 -4.5 -10.5t-10.5 -4.5h-97q-6 0 -11 4.5t-5 10.5zM427 316q0 21 -28 41t-63 20q-43 0 -71 -30t-28 -73t28.5 -73t70.5 -30q35 0 63 20t28 42v83z" />
    <glyph glyph-name="aring" unicode="&#xe5;" horiz-adv-x="685" 
d="M343 754q38 0 65.5 -27.5t27.5 -66.5q0 -38 -27.5 -65t-65.5 -27t-65.5 27t-27.5 65q0 39 27.5 66.5t65.5 27.5zM343 697q-16 0 -26.5 -10.5t-10.5 -26.5q0 -14 10.5 -24.5t26.5 -10.5q15 0 26.5 10.5t11.5 24.5q0 15 -11.5 26t-26.5 11zM474 40q-55 -56 -144 -56
q-120 0 -205 85t-85 205t85 205t204 85q92 0 148 -56v1l12 25q7 15 16 15h84q6 0 10.5 -4.5t4.5 -10.5v-520q0 -6 -4.5 -10.5t-10.5 -4.5h-97q-6 0 -11 4.5t-5 10.5zM427 316q0 21 -28 41t-63 20q-43 0 -71 -30t-28 -73t28.5 -73t70.5 -30q35 0 63 20t28 42v83z" />
    <glyph glyph-name="ccedilla" unicode="&#xe7;" horiz-adv-x="594" 
d="M275 -9q-101 19 -168 98.5t-67 185.5q0 119 84.5 204t203.5 85q95 0 216 -42q14 -5 9 -18l-63 -158q-2 -5 -7.5 -7.5t-11.5 -1.5q-80 26 -143 26q-36 0 -62 -26t-26 -62q0 -37 26 -62.5t62 -25.5q55 0 143 26q6 1 11.5 -1.5t7.5 -7.5q60 -149 63 -158q5 -13 -9 -18
q-121 -42 -216 -42h-10v-19q22 -4 42.5 -23t20.5 -53q0 -46 -37.5 -64.5t-70.5 -6.5l-39 21q-6 3 -2 7l24 33q3 5 6 2q6 -6 24 -15q9 -5 25.5 0.5t16.5 25.5q0 35 -48 35q-5 0 -5 5v57z" />
    <glyph glyph-name="igrave" unicode="&#xec;" horiz-adv-x="352" 
d="M278 651q12 -9 4 -22l-19 -41q-3 -7 -9.5 -10.5t-11.5 -0.5l-195 80q-15 6 -8 20l39 73q3 7 9.5 9t10.5 -2zM257 0q15 0 15 14v520q0 15 -15 15h-163q-14 0 -14 -15v-520q0 -5 4 -9.5t10 -4.5h163z" />
    <glyph glyph-name="iacute" unicode="&#xed;" horiz-adv-x="352" 
d="M74 629q-8 13 4 22l180 106q4 4 10.5 2t9.5 -9l39 -73q7 -14 -8 -20l-195 -80q-5 -3 -11.5 0.5t-9.5 10.5zM257 0q15 0 15 14v520q0 15 -15 15h-163q-14 0 -14 -15v-520q0 -5 4 -9.5t10 -4.5h163z" />
    <glyph glyph-name="icircumflex" unicode="&#xee;" horiz-adv-x="352" 
d="M12 633q-3 5 -0.5 11.5t7.5 8.5l142 82q14 7 27 0l142 -82q14 -6 8 -20l-18 -43q-6 -13 -19 -9l-126 43l-127 -43q-13 -4 -19 9zM257 0q15 0 15 14v520q0 15 -15 15h-163q-14 0 -14 -15v-520q0 -5 4 -9.5t10 -4.5h163z" />
    <glyph glyph-name="idieresis" unicode="&#xef;" horiz-adv-x="352" 
d="M81 591q36 0 57.5 19t21.5 46q0 28 -21.5 47t-57.5 19q-35 0 -56.5 -19t-21.5 -47q0 -27 21.5 -46t56.5 -19zM270 591q36 0 57.5 19t21.5 46q0 28 -21.5 47t-57.5 19q-35 0 -56.5 -19t-21.5 -47q0 -27 21.5 -46t56.5 -19zM257 0q15 0 15 14v520q0 15 -15 15h-163
q-14 0 -14 -15v-520q0 -5 4 -9.5t10 -4.5h163z" />
    <glyph glyph-name="ntilde" unicode="&#xf1;" horiz-adv-x="725" 
d="M272 617q6 -3 11 2q4 4 8 5q19 5 54 -8q85 -35 125 -20q29 11 59 41q7 7 -2 14l-60 48q-5 4 -10 0l-10 -7q-7 -3 -23.5 -0.5t-30.5 8.5q-85 35 -125 20q-17 -6 -37.5 -24t-29.5 -31q-6 -9 5 -14zM208 509q56 55 179 55q134 0 196 -81t62 -208v-261q0 -5 -4.5 -9.5
t-10.5 -4.5h-165q-6 0 -10.5 4.5t-4.5 9.5v261q0 96 -84 96q-33 0 -60.5 -19t-32.5 -39v-299q0 -5 -4.5 -9.5t-10.5 -4.5h-163q-5 0 -10 4.5t-5 10.5v519q0 6 4.5 10.5t10.5 4.5h85q8 0 16 -15z" />
    <glyph glyph-name="ograve" unicode="&#xf2;" horiz-adv-x="659" 
d="M420 651q12 -9 4 -22l-19 -41q-3 -7 -9.5 -10.5t-11.5 -0.5l-195 80q-15 6 -8 20l39 73q3 7 9.5 9t10.5 -2zM329 565q120 0 205 -85t85 -205t-85 -204.5t-205 -84.5t-204.5 84.5t-84.5 204.5t84.5 205t204.5 85zM329 372q-39 0 -67.5 -28.5t-28.5 -68.5q0 -39 28.5 -67.5
t67.5 -28.5q40 0 68.5 28.5t28.5 67.5q0 40 -28.5 68.5t-68.5 28.5z" />
    <glyph glyph-name="oacute" unicode="&#xf3;" horiz-adv-x="659" 
d="M221 629q-8 13 4 22l180 106q4 4 10.5 2t9.5 -9l39 -73q7 -14 -8 -20l-195 -80q-5 -3 -11.5 0.5t-9.5 10.5zM329 565q120 0 205 -85t85 -205t-85 -204.5t-205 -84.5t-204.5 84.5t-84.5 204.5t84.5 205t204.5 85zM329 372q-39 0 -67.5 -28.5t-28.5 -68.5q0 -39 28.5 -67.5
t67.5 -28.5q40 0 68.5 28.5t28.5 67.5q0 40 -28.5 68.5t-68.5 28.5z" />
    <glyph glyph-name="ocircumflex" unicode="&#xf4;" horiz-adv-x="659" 
d="M172 633q-3 5 -0.5 11.5t7.5 8.5l142 82q14 7 27 0l142 -82q14 -6 8 -20l-18 -43q-6 -13 -19 -9l-126 43l-127 -43q-13 -4 -19 9zM329 565q120 0 205 -85t85 -205t-85 -204.5t-205 -84.5t-204.5 84.5t-84.5 204.5t84.5 205t204.5 85zM329 372q-39 0 -67.5 -28.5
t-28.5 -68.5q0 -39 28.5 -67.5t67.5 -28.5q40 0 68.5 28.5t28.5 67.5q0 40 -28.5 68.5t-68.5 28.5z" />
    <glyph glyph-name="otilde" unicode="&#xf5;" horiz-adv-x="659" 
d="M236 617q6 -3 11 2q4 4 8 5q19 5 54 -8q85 -35 125 -20q29 11 59 41q7 7 -2 14l-60 48q-5 4 -10 0l-10 -7q-7 -3 -23.5 -0.5t-30.5 8.5q-85 35 -125 20q-17 -6 -37.5 -24t-29.5 -31q-6 -9 5 -14zM329 565q120 0 205 -85t85 -205t-85 -204.5t-205 -84.5t-204.5 84.5
t-84.5 204.5t84.5 205t204.5 85zM329 372q-39 0 -67.5 -28.5t-28.5 -68.5q0 -39 28.5 -67.5t67.5 -28.5q40 0 68.5 28.5t28.5 67.5q0 40 -28.5 68.5t-68.5 28.5z" />
    <glyph glyph-name="odieresis" unicode="&#xf6;" horiz-adv-x="659" 
d="M234 591q36 0 57.5 19t21.5 46q0 28 -21.5 47t-57.5 19q-35 0 -56.5 -19t-21.5 -47q0 -27 21.5 -46t56.5 -19zM423 591q36 0 57.5 19t21.5 46q0 28 -21.5 47t-57.5 19q-35 0 -56.5 -19t-21.5 -47q0 -27 21.5 -46t56.5 -19zM329 565q120 0 205 -85t85 -205t-85 -204.5
t-205 -84.5t-204.5 84.5t-84.5 204.5t84.5 205t204.5 85zM329 372q-39 0 -67.5 -28.5t-28.5 -68.5q0 -39 28.5 -67.5t67.5 -28.5q40 0 68.5 28.5t28.5 67.5q0 40 -28.5 68.5t-68.5 28.5z" />
    <glyph glyph-name="oslash" unicode="&#xf8;" horiz-adv-x="659" 
d="M562 447h-1q57 -76 57 -172q0 -120 -85 -204.5t-205 -84.5q-94 0 -171 56l-37 -37q-11 -11 -21 1l-44 43q-9 11 0 21l38 38q-53 75 -53 167q0 120 84.5 205t204.5 85q93 0 168 -54l32 32q10 12 21 1l44 -44q10 -10 0 -21zM353 369q-12 3 -25 3q-39 0 -67.5 -28.5
t-28.5 -68.5q0 -12 3 -24zM298 184h1q15 -5 29 -5q40 0 68.5 28.5t28.5 67.5q0 14 -5 31z" />
    <glyph glyph-name="ugrave" unicode="&#xf9;" horiz-adv-x="701" 
d="M420 651q12 -9 4 -22l-19 -41q-3 -7 -9.5 -10.5t-11.5 -0.5l-195 80q-15 6 -8 20l39 73q3 7 9.5 9t10.5 -2zM606 550q5 0 10 -4.5t5 -10.5v-519q0 -6 -4.5 -10.5t-10.5 -4.5h-97q-6 0 -11 4.5t-5 10.5l-2 26q-55 -56 -144 -56q-131 0 -204 77.5t-73 211.5v261
q0 5 4.5 9.5t10.5 4.5h163q6 0 10.5 -4.5t4.5 -9.5v-261q0 -96 84 -96q29 0 53 19t28 39v299q0 5 4.5 9.5t10.5 4.5h163z" />
    <glyph glyph-name="uacute" unicode="&#xfa;" horiz-adv-x="701" 
d="M248 629q-8 13 4 22l180 106q4 4 10.5 2t9.5 -9l39 -73q7 -14 -8 -20l-195 -80q-5 -3 -11.5 0.5t-9.5 10.5zM606 550q5 0 10 -4.5t5 -10.5v-519q0 -6 -4.5 -10.5t-10.5 -4.5h-97q-6 0 -11 4.5t-5 10.5l-2 26q-55 -56 -144 -56q-131 0 -204 77.5t-73 211.5v261
q0 5 4.5 9.5t10.5 4.5h163q6 0 10.5 -4.5t4.5 -9.5v-261q0 -96 84 -96q29 0 53 19t28 39v299q0 5 4.5 9.5t10.5 4.5h163z" />
    <glyph glyph-name="ucircumflex" unicode="&#xfb;" horiz-adv-x="701" 
d="M181 633q-3 5 -0.5 11.5t7.5 8.5l142 82q14 7 27 0l142 -82q14 -6 8 -20l-18 -43q-6 -13 -19 -9l-126 43l-127 -43q-13 -4 -19 9zM606 550q5 0 10 -4.5t5 -10.5v-519q0 -6 -4.5 -10.5t-10.5 -4.5h-97q-6 0 -11 4.5t-5 10.5l-2 26q-55 -56 -144 -56q-131 0 -204 77.5
t-73 211.5v261q0 5 4.5 9.5t10.5 4.5h163q6 0 10.5 -4.5t4.5 -9.5v-261q0 -96 84 -96q29 0 53 19t28 39v299q0 5 4.5 9.5t10.5 4.5h163z" />
    <glyph glyph-name="udieresis" unicode="&#xfc;" horiz-adv-x="701" 
d="M248 591q36 0 57.5 19t21.5 46q0 28 -21.5 47t-57.5 19q-35 0 -56.5 -19t-21.5 -47q0 -27 21.5 -46t56.5 -19zM437 591q36 0 57.5 19t21.5 46q0 28 -21.5 47t-57.5 19q-35 0 -56.5 -19t-21.5 -47q0 -27 21.5 -46t56.5 -19zM606 550q5 0 10 -4.5t5 -10.5v-519
q0 -6 -4.5 -10.5t-10.5 -4.5h-97q-6 0 -11 4.5t-5 10.5l-2 26q-55 -56 -144 -56q-131 0 -204 77.5t-73 211.5v261q0 5 4.5 9.5t10.5 4.5h163q6 0 10.5 -4.5t4.5 -9.5v-261q0 -96 84 -96q29 0 53 19t28 39v299q0 5 4.5 9.5t10.5 4.5h163z" />
    <glyph glyph-name="yacute" unicode="&#xfd;" horiz-adv-x="601" 
d="M221 629q-8 13 4 22l180 106q4 4 10.5 2t9.5 -9l39 -73q7 -14 -8 -20l-195 -80q-5 -3 -11.5 0.5t-9.5 10.5zM301 298l-81 237q-5 14 -19 14h-170q-6 0 -9 -4.5t-1 -9.5l178 -524l-3 -10q-8 -23 -28 -39t-43 -16h-51q-9 0 -12 -13v-103q0 -16 15 -16h60q92 0 167 64.5
t108 161.5l169 494v1q4 14 -11 14h-170q-13 0 -18 -14z" />
    <glyph glyph-name="thorn" unicode="&#xfe;" horiz-adv-x="686" 
d="M257 544h1q41 21 95 21q124 0 208.5 -84.5t84.5 -205.5q0 -123 -85.5 -206.5t-203.5 -83.5q-48 0 -83 17v-164q0 -5 -4.5 -9.5t-10.5 -4.5h-164q-6 0 -10.5 4.5t-4.5 9.5v873q0 5 4.5 9.5t10.5 4.5h147q6 0 10.5 -4.5t4.5 -9.5v-167zM258 233q0 -22 28 -42t63 -20
q42 0 70.5 30t28.5 73t-28 73t-71 30q-35 0 -63 -20t-28 -41v-83z" />
    <glyph glyph-name="ydieresis" unicode="&#xff;" horiz-adv-x="601" 
d="M213 591q36 0 57.5 19t21.5 46q0 28 -21.5 47t-57.5 19q-35 0 -56.5 -19t-21.5 -47q0 -27 21.5 -46t56.5 -19zM402 591q36 0 57.5 19t21.5 46q0 28 -21.5 47t-57.5 19q-35 0 -56.5 -19t-21.5 -47q0 -27 21.5 -46t56.5 -19zM301 298l-81 237q-5 14 -19 14h-170
q-6 0 -9 -4.5t-1 -9.5l178 -524l-3 -10q-8 -23 -28 -39t-43 -16h-51q-9 0 -12 -13v-103q0 -16 15 -16h60q92 0 167 64.5t108 161.5l169 494v1q4 14 -11 14h-170q-13 0 -18 -14z" />
    <glyph glyph-name="dotlessi" unicode="&#x131;" horiz-adv-x="352" 
d="M257 0q15 0 15 14v520q0 15 -15 15h-163q-14 0 -14 -15v-520q0 -5 4 -9.5t10 -4.5h163z" />
    <glyph glyph-name="circumflex" unicode="&#x2c6;" 
d="M140 633q-3 5 -0.5 11.5t7.5 8.5l142 82q14 7 27 0l142 -82q14 -6 8 -20l-18 -43q-6 -13 -19 -9l-126 43l-127 -43q-13 -4 -19 9z" />
    <glyph glyph-name="ring" unicode="&#x2da;" 
d="M330 754q38 0 65.5 -27.5t27.5 -66.5q0 -38 -27.5 -65t-65.5 -27t-65.5 27t-27.5 65q0 39 27.5 66.5t65.5 27.5zM330 697q-16 0 -26.5 -10.5t-10.5 -26.5q0 -14 10.5 -24.5t26.5 -10.5q15 0 26.5 10.5t11.5 24.5q0 15 -11.5 26t-26.5 11z" />
    <glyph glyph-name="tilde" unicode="&#x2dc;" 
d="M183 617q6 -3 11 2q4 4 8 5q19 5 54 -8q85 -35 125 -20q29 11 59 41q7 7 -2 14l-60 48q-5 4 -10 0l-10 -7q-7 -3 -23.5 -0.5t-30.5 8.5q-85 35 -125 20q-17 -6 -37.5 -24t-29.5 -31q-6 -9 5 -14z" />
    <glyph glyph-name="Euro" unicode="&#x20ac;" horiz-adv-x="723" 
d="M286 268h-1q21 -35 56 -55.5t76 -20.5q55 0 143 26q14 4 19 -8q60 -155 63 -164q5 -13 -9 -18q-121 -42 -216 -42q-127 0 -225.5 80t-125.5 202h-50q-16 0 -16 15v39q0 14 16 14h42v10v9h-42q-16 0 -16 15v39q0 14 16 14h50q27 123 126 202.5t225 79.5q95 0 216 -42
q14 -5 9 -18l-63 -164q-5 -12 -19 -8q-88 26 -143 26q-41 0 -76 -21t-55 -55h72q16 0 16 -14v-39q0 -15 -16 -15h-94v-10v-9h94q16 0 16 -14v-39q0 -15 -16 -15h-72z" />
    <glyph glyph-name="f_b" horiz-adv-x="1078" 
d="M477 735q84 0 139 -53t55 -133q35 15 78 15q118 0 203.5 -83.5t85.5 -206.5q0 -120 -84.5 -205t-204.5 -85q-92 0 -149 56l-2 -25q0 -15 -16 -15h-90q-6 0 -10 5t-2 10v534q0 23 -14.5 39t-37.5 16h-69q-23 0 -37.5 -16t-14.5 -39h115q15 0 15 -14l-11 -97
q-2 -15 -15 -15h-104v-408q0 -6 -4.5 -10.5t-10.5 -4.5h-164q-6 0 -10.5 4.5t-4.5 10.5v408h-79q-14 0 -14 15v97q0 6 4.5 10t9.5 4h82q10 82 61.5 134t132.5 52h167zM654 233q0 -22 28 -42t63 -20q42 0 70.5 30t28.5 73t-28 73t-71 30q-35 0 -63 -20t-28 -41v-83z" />
    <glyph glyph-name="f_h" horiz-adv-x="1113" 
d="M671 313q0 20 25.5 39t61.5 19q38 0 65 -28t27 -68v-261q0 -5 4.5 -9.5t10.5 -4.5h163q6 0 10.5 4.5t4.5 9.5v261q0 125 -77 207t-212 82q-48 0 -83 -15q0 80 -55 133t-139 53h-167q-81 0 -132.5 -52t-61.5 -134h-82q-5 0 -9.5 -4t-4.5 -10v-97q0 -15 14 -15h79v-408
q0 -6 4.5 -10.5t10.5 -4.5h164q6 0 10.5 4.5t4.5 10.5v408h104q13 0 15 15l11 97q0 14 -15 14h-115q0 23 14.5 39t37.5 16h69q24 0 37.5 -16t11.5 -39v-534q0 -6 4.5 -10.5t10.5 -4.5h164q6 0 10.5 4.5t4.5 10.5v298z" />
    <glyph glyph-name="f_i" horiz-adv-x="745" 
d="M650 549q15 0 15 -15v-520q0 -14 -15 -14h-163q-6 0 -10 4.5t-4 9.5v409h-166v-408q0 -6 -4.5 -10.5t-10.5 -4.5h-164q-6 0 -10.5 4.5t-4.5 10.5v408h-79q-14 0 -14 15v97q0 6 4.5 10t9.5 4h82q10 82 61.5 134t132.5 52h97q15 0 15 -16v-102q-3 -13 -12 -13h-51
q-23 0 -37.5 -16t-14.5 -39h343zM569 580q-50 0 -73 21.5t-23 50.5t22.5 51t73.5 22t73.5 -21.5t22.5 -51.5q0 -29 -22.5 -50.5t-73.5 -21.5z" />
    <glyph glyph-name="f_j" horiz-adv-x="745" 
d="M650 549q15 0 15 -15v-496q0 -97 -53 -161.5t-145 -64.5h-96q-15 0 -16 16v102q3 13 12 13h53q24 0 38.5 16t14.5 39v425h-166v-408q0 -6 -4.5 -10.5t-10.5 -4.5h-164q-6 0 -10.5 4.5t-4.5 10.5v408h-79q-14 0 -14 15v97q0 6 4.5 10t9.5 4h82q10 82 61.5 134t132.5 52h97
q15 0 15 -16v-102q-3 -13 -12 -13h-51q-23 0 -37.5 -16t-14.5 -39h343zM569 580q-50 0 -73 21.5t-23 50.5t22.5 51t73.5 22t73.5 -21.5t22.5 -51.5q0 -29 -22.5 -50.5t-73.5 -21.5z" />
    <glyph glyph-name="f_k" horiz-adv-x="1069" 
d="M671 210l115 -198q7 -12 21 -12h213q6 0 8.5 3.5t-1.5 8.5l-176 301l143 224q7 12 -7 12h-200q-16 0 -23 -12l-93 -158v170q0 80 -55 133t-139 53h-167q-81 0 -132.5 -52t-61.5 -134h-82q-5 0 -9.5 -4t-4.5 -10v-97q0 -15 14 -15h79v-408q0 -6 4.5 -10.5t10.5 -4.5h164
q6 0 10.5 4.5t4.5 10.5v408h104q13 0 15 15l11 97q0 14 -15 14h-115q0 23 14.5 39t37.5 16h69q24 0 37.5 -16t11.5 -39v-534q0 -6 4.5 -10.5t10.5 -4.5h164q6 0 10.5 4.5t4.5 10.5v195z" />
    <glyph glyph-name="f_l" horiz-adv-x="751" 
d="M428 604q24 0 37.5 -16t11.5 -39v-534q0 -6 4.5 -10.5t10.5 -4.5h164q6 0 10.5 4.5t4.5 10.5v534q0 80 -55 133t-139 53h-167q-81 0 -132.5 -52t-61.5 -134h-82q-5 0 -9.5 -4t-4.5 -10v-97q0 -15 14 -15h79v-408q0 -6 4.5 -10.5t10.5 -4.5h164q6 0 10.5 4.5t4.5 10.5v408
h104q13 0 15 15l11 97q0 14 -15 14h-115q0 23 14.5 39t37.5 16h69z" />
    <glyph glyph-name="f_t" horiz-adv-x="828" 
d="M464 549v126q0 6 4.5 10.5t10.5 4.5h164q6 0 10.5 -4.5t4.5 -10.5v-126h115q15 0 15 -14l-11 -97q-2 -15 -15 -15h-104v-237q0 -23 14.5 -39t37.5 -16h51q9 0 12 -13v-102q0 -16 -15 -16h-97q-92 0 -144.5 64.5t-52.5 161.5v197h-157v-408q0 -6 -4.5 -10.5t-10.5 -4.5
h-164q-6 0 -10.5 4.5t-4.5 10.5v408h-79q-14 0 -14 15v97q0 6 4.5 10t9.5 4h82q0 80 55 133t139 53h80q15 0 15 -16v-102q-3 -13 -12 -13h-34q-23 0 -37.5 -16t-14.5 -39h157z" />
    <glyph glyph-name="t_i" horiz-adv-x="745" 
d="M569 580q-50 0 -73 21.5t-23 50.5t22.5 51t73.5 22t73.5 -21.5t22.5 -51.5q0 -29 -22.5 -50.5t-73.5 -21.5zM650 549q15 0 15 -15v-520q0 -14 -15 -14h-163q-6 0 -10 4.5t-4 9.5v409h-166v-237q0 -23 14.5 -39t37.5 -16h51q9 0 12 -13v-102q0 -16 -15 -16h-97
q-92 0 -144.5 64.5t-52.5 161.5v197h-79q-5 0 -9.5 4t-4.5 10v97q0 15 14 15h79v126q0 6 4.5 10.5t10.5 4.5h164q6 0 10.5 -4.5t4.5 -10.5v-126h343z" />
    <glyph glyph-name="t_j" horiz-adv-x="745" 
d="M569 580q-50 0 -73 21.5t-23 50.5t22.5 51t73.5 22t73.5 -21.5t22.5 -51.5q0 -29 -22.5 -50.5t-73.5 -21.5zM650 549q6 0 10.5 -4.5t4.5 -10.5v-496q0 -97 -53 -161.5t-145 -64.5h-96q-15 0 -16 16v102q3 13 12 13h51q24 0 38.5 16t14.5 39v425h-164v-237q0 -23 14.5 -39
t37.5 -16h51q9 0 12 -13v-102q0 -16 -15 -16h-97q-92 0 -144.5 64.5t-52.5 161.5v197h-79q-5 0 -9.5 4t-4.5 10v97q0 15 14 15h79v126q0 6 4.5 10.5t10.5 4.5h164q6 0 10.5 -4.5t4.5 -10.5v-126h343z" />
    <glyph glyph-name="t_t" horiz-adv-x="843" 
d="M479 423h-172v-237q0 -23 14.5 -39t37.5 -16h51q9 0 12 -13v-102q0 -16 -15 -16h-97q-92 0 -144.5 64.5t-52.5 161.5v197h-79q-5 0 -9.5 4t-4.5 10v97q0 15 14 15h79v126q0 6 4.5 10.5t10.5 4.5h164q6 0 10.5 -4.5t4.5 -10.5v-126h172v126q0 6 4.5 10.5t10.5 4.5h164
q6 0 10.5 -4.5t4.5 -10.5v-126h115q15 0 15 -14l-11 -97q-2 -15 -15 -15h-104v-237q0 -23 14.5 -39t37.5 -16h51q9 0 12 -13v-102q0 -16 -15 -16h-97q-92 0 -144.5 64.5t-52.5 161.5v197z" />
    <glyph glyph-name="t_t_i" horiz-adv-x="1111" 
d="M935 580q-50 0 -73 21.5t-23 50.5t22.5 51t73.5 22t73.5 -21.5t22.5 -51.5q0 -29 -22.5 -50.5t-73.5 -21.5zM1016 549q15 0 15 -15v-520q0 -14 -15 -14h-163q-6 0 -10 4.5t-4 9.5v409h-166v-237q0 -23 14.5 -39t37.5 -16h51q9 0 12 -13v-102q0 -16 -15 -16h-97
q-92 0 -144.5 64.5t-52.5 161.5v197h-172v-237q0 -23 14.5 -39t37.5 -16h51q9 0 12 -13v-102q0 -16 -15 -16h-97q-92 0 -144.5 64.5t-52.5 161.5v197h-79q-5 0 -9.5 4t-4.5 10v97q0 15 14 15h79v126q0 6 4.5 10.5t10.5 4.5h164q6 0 10.5 -4.5t4.5 -10.5v-126h172v126
q0 6 4.5 10.5t10.5 4.5h164q6 0 10.5 -4.5t4.5 -10.5v-126h343z" />
    <glyph glyph-name="t_t_j" horiz-adv-x="1111" 
d="M935 580q-50 0 -73 21.5t-23 50.5t22.5 51t73.5 22t73.5 -21.5t22.5 -51.5q0 -29 -22.5 -50.5t-73.5 -21.5zM1016 549q6 0 10.5 -4.5t4.5 -10.5v-496q0 -97 -53 -161.5t-145 -64.5h-96q-15 0 -16 16v102q3 13 12 13h51q24 0 38.5 16t14.5 39v425h-164v-237
q0 -23 14.5 -39t37.5 -16h51q9 0 12 -13v-102q0 -16 -15 -16h-97q-92 0 -144.5 64.5t-52.5 161.5v197h-172v-237q0 -23 14.5 -39t37.5 -16h51q9 0 12 -13v-102q0 -16 -15 -16h-97q-92 0 -144.5 64.5t-52.5 161.5v197h-79q-5 0 -9.5 4t-4.5 10v97q0 15 14 15h79v126
q0 6 4.5 10.5t10.5 4.5h164q6 0 10.5 -4.5t4.5 -10.5v-126h172v126q0 6 4.5 10.5t10.5 4.5h164q6 0 10.5 -4.5t4.5 -10.5v-126h343z" />
    <glyph glyph-name="acute.case" 
d="M168 774q-8 13 4 22l180 106q4 4 10.5 2t9.5 -9l39 -73q7 -14 -8 -20l-195 -80q-5 -3 -11.5 0.5t-9.5 10.5z" />
    <glyph glyph-name="circumflex.case" 
d="M140 772q-3 5 -0.5 11.5t7.5 8.5l142 82q14 7 27 0l142 -82q14 -6 8 -20l-18 -43q-6 -13 -19 -9l-126 43l-127 -43q-13 -4 -19 9z" />
    <glyph glyph-name="dieresis.case" 
d="M202 717q36 0 57.5 19t21.5 46q0 28 -21.5 47t-57.5 19q-35 0 -56.5 -19t-21.5 -47q0 -27 21.5 -46t56.5 -19zM391 717q36 0 57.5 19t21.5 46q0 28 -21.5 47t-57.5 19q-35 0 -56.5 -19t-21.5 -47q0 -27 21.5 -46t56.5 -19z" />
    <glyph glyph-name="grave.case" 
d="M432 796q12 -9 4 -22l-19 -41q-3 -7 -9.5 -10.5t-11.5 -0.5l-195 80q-15 6 -8 20l39 73q3 7 9.5 9t10.5 -2z" />
    <glyph glyph-name="ring.case" 
d="M330 874q38 0 65.5 -27.5t27.5 -66.5q0 -38 -27.5 -65t-65.5 -27t-65.5 27t-27.5 65q0 39 27.5 66.5t65.5 27.5zM330 817q-16 0 -26.5 -10.5t-10.5 -26.5q0 -14 10.5 -24.5t26.5 -10.5q15 0 26.5 10.5t11.5 24.5q0 15 -11.5 26t-26.5 11z" />
    <glyph glyph-name="tilde.case" 
d="M183 750q6 -3 11 2q4 4 8 5q19 5 54 -8q85 -35 125 -20q29 11 59 41q7 7 -2 14l-60 48q-5 4 -10 0l-10 -7q-7 -3 -23.5 -0.5t-30.5 8.5q-85 35 -125 20q-17 -6 -37.5 -24t-29.5 -31q-6 -9 5 -14z" />
    </font>
</defs>
</svg>
